<?xml version="1.0" standalone="no"?>
<!DOCTYPE svg PUBLIC "-//W3C//DTD SVG 20010904//EN"
 "http://www.w3.org/TR/2001/REC-SVG-20010904/DTD/svg10.dtd">
<svg version="1.0" xmlns="http://www.w3.org/2000/svg"
 width="512.000000pt" height="512.000000pt" viewBox="0 0 512.000000 512.000000"
 preserveAspectRatio="xMidYMid meet">
<metadata>
Created by potrace 1.14, written by Peter Selinger 2001-2017
</metadata>
<g transform="translate(0.000000,512.000000) scale(0.100000,-0.100000)"
fill="#000000" stroke="none">
<path d="M2960 5104 c-241 -38 -411 -233 -411 -470 0 -183 103 -348 263 -422
l58 -27 -2 -314 -3 -314 -60 -14 c-289 -65 -549 -264 -676 -516 -17 -32 -33
-56 -37 -54 -4 3 -54 19 -112 37 -58 17 -139 42 -180 55 -41 13 -129 40 -195
60 -66 20 -183 56 -260 80 -77 24 -149 46 -160 49 -18 5 -20 15 -21 88 -1 239
-160 458 -389 539 -32 11 -74 23 -94 26 -39 5 -177 6 -201 0 -178 -42 -324
-147 -404 -289 -70 -125 -93 -304 -56 -438 54 -197 214 -357 412 -410 203 -55
430 9 572 160 l46 49 163 -49 c89 -26 243 -73 342 -104 99 -30 244 -74 322
-98 l142 -43 -3 -95 c-8 -250 82 -504 241 -683 41 -46 52 -27 -130 -219 -70
-73 -155 -164 -190 -202 l-64 -69 -53 18 c-114 38 -263 24 -381 -35 -57 -29
-189 -149 -189 -172 0 -6 -9 -22 -19 -37 -11 -15 -29 -61 -40 -102 -83 -312
155 -622 475 -621 268 1 493 218 497 480 1 85 -7 128 -39 209 l-26 64 59 62
c32 34 86 91 118 126 194 207 231 245 247 259 13 10 24 8 66 -13 61 -31 180
-70 242 -80 25 -4 54 -9 65 -12 11 -2 66 -4 122 -4 149 0 268 24 402 81 68 29
78 29 89 1 4 -9 74 -117 156 -241 82 -124 173 -262 203 -308 l54 -83 -36 -42
c-44 -51 -110 -184 -123 -250 -13 -62 -13 -181 0 -243 5 -27 28 -87 50 -134
32 -66 56 -101 112 -155 72 -72 178 -135 253 -151 6 -1 34 -7 61 -13 27 -5 84
-8 126 -6 306 17 542 260 551 570 6 198 -92 384 -261 495 -125 82 -283 114
-431 88 l-41 -8 -35 53 c-19 28 -103 155 -186 281 -83 126 -151 230 -151 232
0 2 -18 29 -40 60 -39 56 -42 79 -9 99 41 26 199 289 199 332 0 7 6 13 13 13
29 -1 276 -46 282 -51 3 -4 8 -19 11 -35 9 -52 51 -132 95 -179 154 -167 422
-176 583 -19 253 246 100 672 -251 701 -119 9 -220 -27 -314 -115 -65 -60 -54
-58 -199 -32 -30 5 -71 12 -90 15 -66 11 -65 10 -68 82 -4 95 -19 181 -46 269
l-24 75 21 14 c12 7 127 76 255 153 l232 140 53 -28 c87 -47 188 -63 282 -45
62 12 152 63 203 115 86 87 123 188 117 314 -16 312 -383 488 -638 306 -112
-81 -168 -187 -171 -325 l-1 -80 -255 -153 -254 -153 -51 54 c-136 145 -362
271 -531 294 l-44 6 0 316 0 317 61 29 c73 34 163 120 201 191 142 263 12 584
-274 678 -46 15 -157 26 -198 20z m230 -1858 c259 -68 471 -290 521 -550 12
-62 14 -185 4 -246 -38 -238 -213 -455 -435 -543 -297 -116 -630 -24 -820 228
-97 128 -142 258 -143 415 -1 104 5 149 30 225 96 297 377 497 686 490 51 -1
121 -10 157 -19z"/>
</g>
</svg>
