<svg version="1.1" xmlns="http://www.w3.org/2000/svg" viewBox="0 0 1180.29443359375 710.0398406982422" width="1180.29443359375" height="710.0398406982422">
  <!-- svg-source:excalidraw -->

  <defs>
    <style class="style-fonts">
      @font-face {
        font-family: "Virgil";
        src: url("https://unpkg.com/revedraw@1.0.0-alpha.10/dist/excalidraw-assets/Virgil.woff2");
      }
      @font-face {
        font-family: "Cascadia";
        src: url("https://unpkg.com/revedraw@1.0.0-alpha.10/dist/excalidraw-assets/Cascadia.woff2");
      }
    </style>

  </defs>
  <rect x="0" y="0" width="1180.29443359375" height="710.0398406982422" fill="#ffffff"></rect><g stroke-linecap="round" transform="translate(10 438.8425750732422) rotate(0 90.5 28.5)"><path d="M14.25 0 M14.25 0 C67.37 4.41, 113.8 4.44, 166.75 0 M14.25 0 C52.91 -1.21, 89.63 1.5, 166.75 0 M166.75 0 C179.21 0.27, 179.57 1.73, 181 14.25 M166.75 0 C180.49 -3.09, 178.79 3.39, 181 14.25 M181 14.25 C180.79 26.45, 182.44 32.55, 181 42.75 M181 14.25 C182.7 20.1, 179.06 25, 181 42.75 M181 42.75 C183.86 49.24, 176.9 54.62, 166.75 57 M181 42.75 C183.06 50.41, 178.16 54.74, 166.75 57 M166.75 57 C132.24 58.54, 94.12 55.49, 14.25 57 M166.75 57 C132.36 55.43, 100.59 55.67, 14.25 57 M14.25 57 C3.35 57.37, -3.95 52.25, 0 42.75 M14.25 57 C5.18 54.14, -0.27 54.16, 0 42.75 M0 42.75 C2.66 31.05, -0.88 27.72, 0 14.25 M0 42.75 C-0.29 35.5, 0.14 29.77, 0 14.25 M0 14.25 C2.29 4.49, 6.34 2.99, 14.25 0 M0 14.25 C-2.97 5.58, 4.56 0.68, 14.25 0" stroke="#1e1e1e" stroke-width="1" fill="none"></path></g><g transform="translate(75.33001708984375 454.8425750732422) rotate(0 25.16998291015625 12.5)"><text x="25.16998291015625" y="0" font-family="HanziPen SC, HanziPen Remote, Virgil, KaiTi, Segoe UI Emoji" font-size="20px" fill="#1e1e1e" text-anchor="middle" style="white-space: pre;" direction="ltr" dominant-baseline="text-before-edge">qs.yml</text></g><g stroke-linecap="round" transform="translate(51.47576904296875 16.511672973632812) rotate(0 73 24.5)"><path d="M12.25 0 M12.25 0 C54.54 -1.41, 100.84 -0.62, 133.75 0 M12.25 0 C36.33 -2.99, 62.43 -3.1, 133.75 0 M133.75 0 C139.58 -1.25, 147.64 8.08, 146 12.25 M133.75 0 C143.15 -1.08, 147 -0.5, 146 12.25 M146 12.25 C149.89 22.62, 144.23 29.22, 146 36.75 M146 12.25 C146.27 19.14, 144.33 23.18, 146 36.75 M146 36.75 C142.96 46.8, 139.2 48.19, 133.75 49 M146 36.75 C149.2 46.65, 139.47 49.24, 133.75 49 M133.75 49 C93.29 51.97, 61.21 46.13, 12.25 49 M133.75 49 C98.85 47.7, 66.23 48.06, 12.25 49 M12.25 49 C4.74 52.31, 2.59 47.04, 0 36.75 M12.25 49 C8.4 51.02, -3.22 46.91, 0 36.75 M0 36.75 C-0.67 30.1, 1.35 25.96, 0 12.25 M0 36.75 C0.78 29.74, 1.19 21.49, 0 12.25 M0 12.25 C2.96 0.38, 1.47 0.79, 12.25 0 M0 12.25 C-2.53 4.21, 2.97 3.27, 12.25 0" stroke="#1e1e1e" stroke-width="1" fill="none"></path></g><g transform="translate(82.14580535888672 28.511672973632812) rotate(0 42.32996368408203 12.5)"><text x="42.32996368408203" y="0" font-family="HanziPen SC, HanziPen Remote, Virgil, KaiTi, Segoe UI Emoji" font-size="20px" fill="#1e1e1e" text-anchor="middle" style="white-space: pre;" direction="ltr" dominant-baseline="text-before-edge">scratch.md</text></g><g stroke-linecap="round" transform="translate(608.02294921875 398.2941131591797) rotate(0 70 23.5)"><path d="M11.75 0 M11.75 0 C40.3 -3.75, 66.04 -1.22, 128.25 0 M11.75 0 C58.99 3.02, 101.77 1.17, 128.25 0 M128.25 0 C139.19 -2.77, 137.52 4.69, 140 11.75 M128.25 0 C135.59 1.72, 140.76 7.72, 140 11.75 M140 11.75 C142 17.52, 141.99 25.7, 140 35.25 M140 11.75 C139.77 17.69, 140.39 22.94, 140 35.25 M140 35.25 C137.46 41.38, 137.01 48.45, 128.25 47 M140 35.25 C142.02 43.57, 139.49 42.74, 128.25 47 M128.25 47 C101.03 44.75, 76.44 45.82, 11.75 47 M128.25 47 C83.81 48.36, 35.81 45.14, 11.75 47 M11.75 47 C4.36 46.42, 1.07 43.71, 0 35.25 M11.75 47 C6.76 48.74, -4.09 44.48, 0 35.25 M0 35.25 C-0.32 28.16, -1.52 12.57, 0 11.75 M0 35.25 C0.76 30.11, 0.52 19.35, 0 11.75 M0 11.75 C-2.97 2.96, 3.57 2.31, 11.75 0 M0 11.75 C-3.96 8.49, 0.96 -2.2, 11.75 0" stroke="#1e1e1e" stroke-width="1" fill="none"></path></g><g transform="translate(640.4429702758789 409.2941131591797) rotate(0 37.579978942871094 12.5)"><text x="37.579978942871094" y="0" font-family="HanziPen SC, HanziPen Remote, Virgil, KaiTi, Segoe UI Emoji" font-size="20px" fill="#1e1e1e" text-anchor="middle" style="white-space: pre;" direction="ltr" dominant-baseline="text-before-edge">TASK.md</text></g><g stroke-linecap="round" transform="translate(610.1961669921875 204.12413024902344) rotate(0 74.5 19)"><path d="M9.5 0 M9.5 0 C49.22 -1.74, 81.33 3.41, 139.5 0 M9.5 0 C57.14 2.21, 104.87 2.81, 139.5 0 M139.5 0 C148.3 1.51, 145.44 4.38, 149 9.5 M139.5 0 C150.4 0.12, 145.95 2.81, 149 9.5 M149 9.5 C148.75 17.91, 148.88 24.9, 149 28.5 M149 9.5 C147.73 16.5, 148.97 25.5, 149 28.5 M149 28.5 C145.55 38.81, 143.27 36.09, 139.5 38 M149 28.5 C145.02 33.17, 149.07 41.53, 139.5 38 M139.5 38 C94.93 38.67, 47.77 39.02, 9.5 38 M139.5 38 C100.87 41.69, 64.91 42.09, 9.5 38 M9.5 38 C3.01 35.48, 3.38 34.11, 0 28.5 M9.5 38 C1.48 38.96, 0.02 31.24, 0 28.5 M0 28.5 C-1.17 24.33, -3.35 20.56, 0 9.5 M0 28.5 C0.35 21.47, -1.23 15.13, 0 9.5 M0 9.5 C-1.47 5.91, 5.38 -1.92, 9.5 0 M0 9.5 C0 5.96, 4.87 -4.12, 9.5 0" stroke="#1e1e1e" stroke-width="1" fill="none"></path></g><g transform="translate(648.9561996459961 210.62413024902344) rotate(0 35.739967346191406 12.5)"><text x="35.739967346191406" y="0" font-family="HanziPen SC, HanziPen Remote, Virgil, KaiTi, Segoe UI Emoji" font-size="20px" fill="#1e1e1e" text-anchor="middle" style="white-space: pre;" direction="ltr" dominant-baseline="text-before-edge">Diary.md</text></g><g mask="url(#mask-_4Dw-OYPCUKKk12BCMzgI)" stroke-linecap="round"><g transform="translate(438.3634315024001 248.27401068482544) rotate(0 83.5643190415289 -6.916763729822918)"><path d="M-1.24 0.89 C26.48 -1.28, 140.48 -12.52, 168.37 -14.72 M3.28 -1.1 C30.68 -2.85, 140.67 -11.03, 167.54 -12.39" stroke="#1e1e1e" stroke-width="1" fill="none"></path></g><g transform="translate(438.3634315024001 248.27401068482544) rotate(0 83.5643190415289 -6.916763729822918)"><path d="M141.34 3.37 C147.05 -4.09, 160.7 -8.98, 166.54 -11.85 M138.62 0.68 C146.25 -2.14, 154.18 -7.07, 167.36 -10.44" stroke="#1e1e1e" stroke-width="1" fill="none"></path></g><g transform="translate(438.3634315024001 248.27401068482544) rotate(0 83.5643190415289 -6.916763729822918)"><path d="M140.02 -17.11 C145.98 -16.92, 160.12 -14.17, 166.54 -11.85 M137.31 -19.8 C145.52 -17.45, 153.78 -17.24, 167.36 -10.44" stroke="#1e1e1e" stroke-width="1" fill="none"></path></g></g><mask id="mask-_4Dw-OYPCUKKk12BCMzgI"><rect x="0" y="0" fill="#fff" width="704.1377801662538" height="360.61209254059395"></rect><rect x="498.7106201775887" y="229.6049697569411" fill="#000" width="45.07997131347656" height="25" opacity="1"></rect></mask><g transform="translate(498.7106201775887 229.60496975694116) rotate(0 23.217130366340314 11.752277198061364)"><text x="22.53998565673828" y="0" font-family="HanziPen SC, HanziPen Remote, Virgil, KaiTi, Segoe UI Emoji" font-size="20px" fill="#1e1e1e" text-anchor="middle" style="white-space: pre;" direction="ltr" dominant-baseline="text-before-edge">TRUE</text></g><g mask="url(#mask-aYIwaPd3nwzEOsPjcjVhO)" stroke-linecap="round"><g transform="translate(441.1513240892792 259.36730844859994) rotate(0 84.03381983934935 84.31421437792369)"><path d="M1.44 -0.76 C28.88 27.04, 136.58 140.56, 163.93 169.12 M-1.23 -3.64 C27.18 24.35, 141.84 142.66, 169.3 172.27" stroke="#1e1e1e" stroke-width="1" fill="none"></path></g><g transform="translate(441.1513240892792 259.36730844859994) rotate(0 84.03381983934935 84.31421437792369)"><path d="M141.34 156.21 C148.74 161.82, 158.2 163.24, 172.42 169.17 M142.5 159.9 C150.21 162.24, 159.47 166.44, 171.25 170.84" stroke="#1e1e1e" stroke-width="1" fill="none"></path></g><g transform="translate(441.1513240892792 259.36730844859994) rotate(0 84.03381983934935 84.31421437792369)"><path d="M156.2 142.06 C159.77 151.68, 165.17 156.98, 172.42 169.17 M157.37 145.75 C160.11 152.55, 164.51 161.37, 171.25 170.84" stroke="#1e1e1e" stroke-width="1" fill="none"></path></g></g><mask id="mask-aYIwaPd3nwzEOsPjcjVhO"><rect x="0" y="0" fill="#fff" width="706.9844876802885" height="529.3605083494335"></rect><rect x="497.66792724708864" y="331.86390839901674" fill="#000" width="52.799957275390625" height="25" opacity="1"></rect></mask><g transform="translate(497.66792724708864 331.86390839901674) rotate(0 27.51721668154005 11.817614427506896)"><text x="26.399978637695312" y="0" font-family="HanziPen SC, HanziPen Remote, Virgil, KaiTi, Segoe UI Emoji" font-size="20px" fill="#1e1e1e" text-anchor="middle" style="white-space: pre;" direction="ltr" dominant-baseline="text-before-edge">FALSE</text></g><g stroke-linecap="round" transform="translate(970.6632690429688 76.454345703125) rotate(0 60.16162109375 22.514678955078125)"><path d="M11.26 0 M11.26 0 C47.18 -4.34, 83.24 3.07, 109.07 0 M11.26 0 C47.36 2.29, 87.2 1.04, 109.07 0 M109.07 0 C117.83 2.24, 119.98 4.2, 120.32 11.26 M109.07 0 C114.92 0.18, 121.57 0.43, 120.32 11.26 M120.32 11.26 C123.38 19.22, 119.55 30.34, 120.32 33.77 M120.32 11.26 C120.33 15.17, 119.94 22.14, 120.32 33.77 M120.32 33.77 C121.43 42.91, 119.69 48.35, 109.07 45.03 M120.32 33.77 C121.68 40.35, 120.98 46.56, 109.07 45.03 M109.07 45.03 C89.03 40.99, 68.17 46.26, 11.26 45.03 M109.07 45.03 C82.95 46.69, 58.34 45.21, 11.26 45.03 M11.26 45.03 C0.61 42.11, 0.28 41.56, 0 33.77 M11.26 45.03 C2.52 41.15, 2.21 38.31, 0 33.77 M0 33.77 C2 26.81, 1.66 21.46, 0 11.26 M0 33.77 C0.22 28.92, -1.3 22.47, 0 11.26 M0 11.26 C0.65 2.72, 7.07 -3.01, 11.26 0 M0 11.26 C2.78 4.9, 2.34 0.51, 11.26 0" stroke="#1e1e1e" stroke-width="1" fill="none"></path></g><g transform="translate(1015.2649002075195 86.46902465820312) rotate(0 15.559989929199219 12.5)"><text x="15.559989929199219" y="0" font-family="HanziPen SC, HanziPen Remote, Virgil, KaiTi, Segoe UI Emoji" font-size="20px" fill="#1e1e1e" text-anchor="middle" style="white-space: pre;" direction="ltr" dominant-baseline="text-before-edge">blog</text></g><g mask="url(#mask-F4F1VOj9rJlYJAsHPcfSI)" stroke-linecap="round"><g transform="translate(1000.0174411785861 128.8276439717497) rotate(0 -120.3858303832825 46.21300591519545)"><path d="M-2.78 0.32 C-42.87 15.51, -199.47 75.93, -239.15 91.51 M0.91 -1.98 C-39.73 13.55, -202.31 79.27, -241.68 94.4" stroke="#1e1e1e" stroke-width="1" fill="none"></path></g><g transform="translate(1000.0174411785861 128.8276439717497) rotate(0 -120.3858303832825 46.21300591519545)"><path d="M-218.79 73.73 C-228.97 77.75, -233.51 90.21, -238.28 94.33 M-219.32 75.52 C-223.09 78.77, -229.74 83.49, -240.03 92.95" stroke="#1e1e1e" stroke-width="1" fill="none"></path></g><g transform="translate(1000.0174411785861 128.8276439717497) rotate(0 -120.3858303832825 46.21300591519545)"><path d="M-211.24 92.81 C-224.11 90.01, -231.29 95.81, -238.28 94.33 M-211.77 94.6 C-217.71 92.97, -226.31 92.75, -240.03 92.95" stroke="#1e1e1e" stroke-width="1" fill="none"></path></g></g><mask id="mask-F4F1VOj9rJlYJAsHPcfSI"><rect x="0" y="0" fill="#fff" width="1338.6367445671451" height="321.6966495288709"></rect><rect x="853.0278120673142" y="162.7621467503103" fill="#000" width="55.359954833984375" height="25" opacity="1"></rect></mask><g transform="translate(853.0278120673142 162.7621467503103) rotate(0 26.60379872798933 12.27850313663484)"><text x="27.679977416992188" y="0" font-family="HanziPen SC, HanziPen Remote, Virgil, KaiTi, Segoe UI Emoji" font-size="20px" fill="#1e1e1e" text-anchor="middle" style="white-space: pre;" direction="ltr" dominant-baseline="text-before-edge">2. URL</text></g><g mask="url(#mask-ccqrsnGiIhwtQHv3Wcvmx)" stroke-linecap="round"><g transform="translate(722.0040780550662 201.29750061035156) rotate(0 121.16726871052515 -58.66196371370725)"><path d="M0.47 2.12 C41.13 -16.83, 204.87 -95.37, 245.05 -115.9 M-2.72 0.8 C37.58 -18.67, 201.84 -99.43, 243.49 -119.45" stroke="#1e1e1e" stroke-width="1" fill="none"></path></g><g transform="translate(722.0040780550662 201.29750061035156) rotate(0 121.16726871052515 -58.66196371370725)"><path d="M225.66 -96.11 C233.89 -108.46, 233.59 -116.03, 244.28 -123 M221.27 -98.72 C229.18 -106.83, 236.57 -116.39, 241.53 -118.36" stroke="#1e1e1e" stroke-width="1" fill="none"></path></g><g transform="translate(722.0040780550662 201.29750061035156) rotate(0 121.16726871052515 -58.66196371370725)"><path d="M216.68 -114.56 C227.67 -120.68, 230.41 -122, 244.28 -123 M212.28 -117.18 C223.91 -118.23, 234.79 -120.63, 241.53 -118.36" stroke="#1e1e1e" stroke-width="1" fill="none"></path></g></g><mask id="mask-ccqrsnGiIhwtQHv3Wcvmx"><rect x="0" y="0" fill="#fff" width="1065.8175659179688" height="419.8958822926466"></rect><rect x="775.9308720353456" y="129.49830976920407" fill="#000" width="135.95989990234375" height="25" opacity="1"></rect></mask><g transform="translate(775.9308720353456 129.49830976920407) rotate(0 67.24047473024575 13.13722712744024)"><text x="67.97994995117188" y="0" font-family="HanziPen SC, HanziPen Remote, Virgil, KaiTi, Segoe UI Emoji" font-size="20px" fill="#1e1e1e" text-anchor="middle" style="white-space: pre;" direction="ltr" dominant-baseline="text-before-edge">1. EXTRACT(...)</text></g><g mask="url(#mask-s2xPw6o8YdcAfc2nOsVXW)" stroke-linecap="round"><g transform="translate(979.5347259796358 341.34104504459873) rotate(0 -139.13192819756995 -45.82853792685404)"><path d="M-0.32 2.71 C-47.07 -13.38, -231.65 -78.21, -277.95 -94.37 M-3.93 1.72 C-50.09 -14.33, -228.13 -76.5, -272.94 -92.21" stroke="#1e1e1e" stroke-width="1" fill="none"></path></g><g transform="translate(979.5347259796358 341.34104504459873) rotate(0 -139.13192819756995 -45.82853792685404)"><path d="M-239.06 -96.25 C-258.58 -96.43, -270.17 -88.97, -273.27 -94.57 M-243.47 -93 C-251.78 -91.14, -262.9 -93.94, -271.43 -91.65" stroke="#1e1e1e" stroke-width="1" fill="none"></path></g><g transform="translate(979.5347259796358 341.34104504459873) rotate(0 -139.13192819756995 -45.82853792685404)"><path d="M-245.84 -76.88 C-262.99 -84.65, -271.93 -84.79, -273.27 -94.57 M-250.24 -73.63 C-255.87 -78.72, -264.59 -88.38, -271.43 -91.65" stroke="#1e1e1e" stroke-width="1" fill="none"></path></g></g><mask id="mask-s2xPw6o8YdcAfc2nOsVXW"><rect x="0" y="0" fill="#fff" width="1354.9207966272775" height="533.0023034091298"></rect><rect x="826.0917059146041" y="283.0104158623331" fill="#000" width="31.499969482421875" height="25" opacity="1"></rect></mask><g transform="translate(826.0917059146041 283.01041586233316) rotate(0 14.311091867461812 12.502091255411528)"><text x="15.749984741210938" y="0" font-family="HanziPen SC, HanziPen Remote, Virgil, KaiTi, Segoe UI Emoji" font-size="20px" fill="#1e1e1e" text-anchor="middle" style="white-space: pre;" direction="ltr" dominant-baseline="text-before-edge">URL</text></g><g stroke-linecap="round" transform="translate(970.2401123046875 347.76318359375) rotate(0 50.2889404296875 17.5)"><path d="M8.75 0 M8.75 0 C25.2 -3.76, 44.49 -4.33, 91.83 0 M8.75 0 C40.37 1.3, 69.71 -1.63, 91.83 0 M91.83 0 C100.68 1.13, 99.84 -0.46, 100.58 8.75 M91.83 0 C94.7 4.41, 104.45 7.23, 100.58 8.75 M100.58 8.75 C100.29 14.38, 101.19 21.49, 100.58 26.25 M100.58 8.75 C100.92 13.87, 99.51 17.78, 100.58 26.25 M100.58 26.25 C99.28 34.65, 95.03 33.62, 91.83 35 M100.58 26.25 C100.28 28.41, 98.95 37.85, 91.83 35 M91.83 35 C73.44 33.21, 52.06 34.37, 8.75 35 M91.83 35 C61.68 32.24, 30.17 34.26, 8.75 35 M8.75 35 C3.8 31.08, -3.48 30.05, 0 26.25 M8.75 35 C4.39 33.5, 3.52 35.36, 0 26.25 M0 26.25 C-0.11 20.26, -0.64 15.66, 0 8.75 M0 26.25 C1.21 22.65, 0.08 16.51, 0 8.75 M0 8.75 C1.96 2.72, 0.06 0.08, 8.75 0 M0 8.75 C1.05 4.99, 3.91 4.22, 8.75 0" stroke="#1e1e1e" stroke-width="1" fill="none"></path></g><g transform="translate(1003.7390670776367 352.76318359375) rotate(0 16.78998565673828 12.5)"><text x="16.78998565673828" y="0" font-family="HanziPen SC, HanziPen Remote, Virgil, KaiTi, Segoe UI Emoji" font-size="20px" fill="#1e1e1e" text-anchor="middle" style="white-space: pre;" direction="ltr" dominant-baseline="text-before-edge">code</text></g><g stroke-linecap="round" transform="translate(81.19061279296875 174.98715209960938) rotate(0 185 67.5)"><path d="M232.5 17 M232.5 17 C259.89 29.56, 290.08 37.32, 323.5 51 M232.5 17 C265.2 28.64, 292.33 42.38, 323.5 51 M323.5 51 C368.47 71.84, 373.06 67.78, 323.5 85 M323.5 51 C371.85 72.19, 368.99 68.59, 323.5 85 M323.5 85 C290.32 93.81, 262.09 108.85, 232.5 118 M323.5 85 C285.92 100.16, 251.44 113.3, 232.5 118 M232.5 118 C185.25 137.75, 184.51 131.75, 139.5 118 M232.5 118 C182.72 135.03, 186.33 135.84, 139.5 118 M139.5 118 C103.37 105.69, 69.38 95.01, 46.5 85 M139.5 118 C118.84 112.14, 96.2 102.57, 46.5 85 M46.5 85 C-0.52 68.81, -1.97 68.1, 46.5 51 M46.5 85 C-3.54 67.47, 0.28 65.12, 46.5 51 M46.5 51 C83.44 38.67, 115.58 26.15, 139.5 17 M46.5 51 C80.43 38.16, 113.48 27.3, 139.5 17 M139.5 17 C188.76 -2.86, 188.23 1.61, 232.5 17 M139.5 17 C183.87 -3.42, 181.96 3.51, 232.5 17" stroke="#1e1e1e" stroke-width="1" fill="none"></path></g><g transform="translate(182.9606704711914 217.73715209960938) rotate(0 83.22994232177734 25)"><text x="83.22994232177734" y="0" font-family="HanziPen SC, HanziPen Remote, Virgil, KaiTi, Segoe UI Emoji" font-size="20px" fill="#1e1e1e" text-anchor="middle" style="white-space: pre;" direction="ltr" dominant-baseline="text-before-edge">Can it be completed </text><text x="83.22994232177734" y="25" font-family="HanziPen SC, HanziPen Remote, Virgil, KaiTi, Segoe UI Emoji" font-size="20px" fill="#1e1e1e" text-anchor="middle" style="white-space: pre;" direction="ltr" dominant-baseline="text-before-edge">immediately?</text></g><g mask="url(#mask-dIcZBLF3aSZI-JyQyZ77x)" stroke-linecap="round"><g transform="translate(762.5560913085938 417.6799074693216) rotate(0 98.35544358555228 -20.414374413923838)"><path d="M0.02 0.2 C33.75 -5.63, 166.73 -30.2, 200.13 -36.97 M-3.41 -2.16 C30.2 -8.6, 164.43 -35.03, 198.17 -41.03" stroke="#1e1e1e" stroke-width="1" fill="none"></path></g><g transform="translate(762.5560913085938 417.6799074693216) rotate(0 98.35544358555228 -20.414374413923838)"><path d="M172.66 -24.99 C180.71 -27.94, 181.49 -34.68, 198.91 -43.6 M173.47 -24.68 C182.61 -29.95, 189.99 -36.26, 198.57 -42.02" stroke="#1e1e1e" stroke-width="1" fill="none"></path></g><g transform="translate(762.5560913085938 417.6799074693216) rotate(0 98.35544358555228 -20.414374413923838)"><path d="M168.85 -45.15 C177.45 -43.7, 179.06 -46.03, 198.91 -43.6 M169.66 -44.84 C179.9 -42.98, 188.6 -42.22, 198.57 -42.02" stroke="#1e1e1e" stroke-width="1" fill="none"></path></g></g><mask id="mask-dIcZBLF3aSZI-JyQyZ77x"><rect x="0" y="0" fill="#fff" width="1062.1669311523438" height="556.3852963332009"></rect><rect x="820.4615325927734" y="385.82721303738197" fill="#000" width="83.79995727539062" height="25" opacity="1"></rect></mask><g transform="translate(820.4615325927734 385.82721303738197) rotate(0 40.45000230137259 11.438320018015816)"><text x="41.89997863769531" y="0" font-family="HanziPen SC, HanziPen Remote, Virgil, KaiTi, Segoe UI Emoji" font-size="20px" fill="#1e1e1e" text-anchor="middle" style="white-space: pre;" direction="ltr" dominant-baseline="text-before-edge">implement</text></g><g stroke-linecap="round"><g transform="translate(138.20158101805498 66.55013451209436) rotate(0 35.87187348152247 63.31581179619232)"><path d="M2.4 -0.46 C14.62 21.09, 59.85 108.71, 71.48 129.82 M0.26 -3.19 C12.42 17.51, 58.21 103.78, 70.11 125.67" stroke="#1e1e1e" stroke-width="1" fill="none"></path></g><g transform="translate(138.20158101805498 66.55013451209436) rotate(0 35.87187348152247 63.31581179619232)"><path d="M47.07 107.97 C55.32 113.29, 55.36 112.21, 73.21 127.46 M48.15 105.04 C54.77 111.33, 59.66 114.69, 71.13 125.84" stroke="#1e1e1e" stroke-width="1" fill="none"></path></g><g transform="translate(138.20158101805498 66.55013451209436) rotate(0 35.87187348152247 63.31581179619232)"><path d="M65.14 98.26 C69.2 106.16, 65.01 107.36, 73.21 127.46 M66.22 95.32 C68.74 103.59, 69.39 109.23, 71.13 125.84" stroke="#1e1e1e" stroke-width="1" fill="none"></path></g></g><mask></mask><g transform="translate(494.0386962890625 466.3700714111328) rotate(0 313.96978759765625 50)"><text x="0" y="0" font-family="HanziPen SC, HanziPen Remote, Virgil, KaiTi, Segoe UI Emoji" font-size="20px" fill="#1e1e1e" text-anchor="start" style="white-space: pre;" direction="ltr" dominant-baseline="text-before-edge">几点细节：</text><text x="0" y="25" font-family="HanziPen SC, HanziPen Remote, Virgil, KaiTi, Segoe UI Emoji" font-size="20px" fill="#1e1e1e" text-anchor="start" style="white-space: pre;" direction="ltr" dominant-baseline="text-before-edge"></text><text x="0" y="50" font-family="HanziPen SC, HanziPen Remote, Virgil, KaiTi, Segoe UI Emoji" font-size="20px" fill="#1e1e1e" text-anchor="start" style="white-space: pre;" direction="ltr" dominant-baseline="text-before-edge">1. 注意主线流程，也即TASK -&gt; code -&gt; Diary -&gt; qs.yml</text><text x="0" y="75" font-family="HanziPen SC, HanziPen Remote, Virgil, KaiTi, Segoe UI Emoji" font-size="20px" fill="#1e1e1e" text-anchor="start" style="white-space: pre;" direction="ltr" dominant-baseline="text-before-edge">2. blog的内容需要是“探索”，需要带着目的，而非“记录”，这点很重要</text></g><g mask="url(#mask-cCRVdJ62DUDROTSpgI66P)" stroke-linecap="round"><g transform="translate(664.0611572265625 228.6436309814453) rotate(0 -245.6953642498987 103.12271477310418)"><path d="M-0.22 -1.4 C-81.66 32.5, -407.9 170.01, -490.08 203.96 M-3.79 4.01 C-85.28 38.35, -409.18 174.22, -491.17 207.65" stroke="#1e1e1e" stroke-width="1" fill="none"></path></g><g transform="translate(664.0611572265625 228.6436309814453) rotate(0 -245.6953642498987 103.12271477310418)"><path d="M-471.06 190.41 C-474.33 190.79, -482.18 195.27, -493.84 206.77 M-467.17 189.06 C-476.76 195.04, -486.09 201.1, -492.56 207.35" stroke="#1e1e1e" stroke-width="1" fill="none"></path></g><g transform="translate(664.0611572265625 228.6436309814453) rotate(0 -245.6953642498987 103.12271477310418)"><path d="M-463.2 209.36 C-468.5 205.02, -478.3 204.79, -493.84 206.77 M-459.31 208.02 C-471.99 207.06, -484.22 206.11, -492.56 207.35" stroke="#1e1e1e" stroke-width="1" fill="none"></path></g></g><mask id="mask-cCRVdJ62DUDROTSpgI66P"><rect x="0" y="0" fill="#fff" width="1256.270145667774" height="532.503428532527"></rect><rect x="376.97668253720667" y="318.0735297569861" fill="#000" width="81.9599609375" height="25" opacity="1"></rect></mask><g transform="translate(376.9766825372068 318.0735297569861) rotate(0 41.38911043945703 13.692815997563343)"><text x="40.97998046875" y="0" font-family="HanziPen SC, HanziPen Remote, Virgil, KaiTi, Segoe UI Emoji" font-size="20px" fill="#1e1e1e" text-anchor="middle" style="white-space: pre;" direction="ltr" dominant-baseline="text-before-edge">EXTRACT</text></g><g stroke-linecap="round" transform="translate(653.6268310546875 10) rotate(0 258.33380126953125 110.5839614868164)"><path d="M450.21 38.33 C467.58 43.99, 478.65 53.5, 488.7 62.2 C498.75 70.9, 505.86 80.58, 510.52 90.52 C515.18 100.45, 518.18 111.67, 516.67 121.81 C515.15 131.94, 509.65 142.41, 501.43 151.35 C493.21 160.28, 481.25 167.72, 467.37 175.41 C453.48 183.1, 436.49 191.3, 418.14 197.48 C399.8 203.65, 378.84 208.56, 357.3 212.46 C335.76 216.35, 311.76 219.44, 288.91 220.85 C266.05 222.26, 243.32 222.6, 220.17 220.92 C197.02 219.24, 171.43 214.85, 150 210.76 C128.56 206.67, 109.08 202.55, 91.55 196.39 C74.02 190.22, 57.54 182.37, 44.82 173.75 C32.09 165.14, 22.3 154.5, 15.19 144.69 C8.09 134.88, 3.69 124.71, 2.2 114.9 C0.7 105.08, 1.69 95.53, 6.22 85.8 C10.76 76.06, 18.01 64.85, 29.4 56.49 C40.78 48.12, 58.4 42.48, 74.55 35.6 C90.71 28.73, 106.37 20.7, 126.32 15.25 C146.27 9.81, 171.62 5.55, 194.26 2.92 C216.9 0.28, 239.32 -0.58, 262.15 -0.56 C284.98 -0.55, 308.66 -0.3, 331.23 2.99 C353.8 6.27, 371.97 10.15, 397.56 19.14 C423.16 28.14, 467.47 46.56, 484.79 56.94 C502.1 67.32, 505.69 80.61, 501.45 81.43 M272.38 0.11 C293.82 -1.86, 318.71 -0.12, 341.55 3.64 C364.39 7.41, 389.75 16.31, 409.42 22.68 C429.08 29.06, 445.26 34.56, 459.56 41.89 C473.85 49.22, 486.36 57.37, 495.21 66.67 C504.06 75.96, 509.61 87.72, 512.65 97.66 C515.7 107.61, 516.28 117.36, 513.48 126.34 C510.67 135.31, 504.66 142.42, 495.83 151.53 C486.99 160.64, 475.13 172.92, 460.45 181 C445.76 189.09, 427.2 194.38, 407.71 200.05 C388.22 205.72, 365.45 211.38, 343.5 215 C321.55 218.63, 298.34 221.06, 276.01 221.78 C253.68 222.51, 232 221.63, 209.51 219.37 C187.02 217.1, 161.95 212.83, 141.07 208.22 C120.19 203.62, 101.79 198.35, 84.24 191.73 C66.7 185.11, 47.92 177.17, 35.8 168.5 C23.68 159.83, 17.32 148.91, 11.52 139.72 C5.73 130.54, 1.33 123.08, 1.03 113.4 C0.74 103.72, 3.61 91.39, 9.75 81.64 C15.9 71.89, 26.08 63.97, 37.91 54.89 C49.74 45.81, 64.11 34.59, 80.73 27.15 C97.35 19.72, 116.65 13.93, 137.62 10.28 C158.6 6.62, 183.59 6.87, 206.58 5.22 C229.57 3.56, 264.71 0.38, 275.55 0.34 C286.39 0.3, 272.27 3.34, 271.62 4.97" stroke="#1e1e1e" stroke-width="1" fill="none"></path></g><g transform="translate(769.9019775390625 40.327545166015625) rotate(0 147.9151611328125 88.90977478027344)" stroke="none"><path fill="#1e1e1e" d="M 0.62,-1.42 Q 0.62,-1.42 4.22,0.19 7.82,1.81 20.90,8.69 33.98,15.57 45.73,22.12 57.48,28.66 73.65,37.39 89.82,46.11 104.96,55.03 120.10,63.95 131.32,71.09 142.53,78.23 154.97,86.38 167.40,94.53 176.67,100.81 185.94,107.09 195.41,112.85 204.88,118.60 212.70,123.37 220.52,128.13 224.97,131.09 229.43,134.05 236.82,139.44 244.22,144.83 249.19,148.14 254.17,151.44 257.94,154.01 261.71,156.59 263.58,157.83 265.44,159.08 266.43,159.56 267.42,160.05 269.31,161.38 271.20,162.71 276.17,165.37 281.13,168.02 285.42,170.42 289.71,172.83 291.65,173.92 293.60,175.01 295.09,175.73 296.57,176.46 296.77,176.61 296.97,176.77 297.11,176.98 297.24,177.19 297.31,177.43 297.37,177.67 297.35,177.92 297.33,178.17 297.24,178.40 297.14,178.64 296.97,178.82 296.81,179.01 296.59,179.14 296.37,179.26 296.13,179.31 295.88,179.36 295.63,179.33 295.39,179.30 295.16,179.19 294.93,179.08 294.76,178.91 294.58,178.73 294.46,178.51 294.35,178.28 294.31,178.04 294.28,177.79 294.32,177.54 294.37,177.30 294.49,177.08 294.61,176.86 294.79,176.69 294.98,176.52 295.21,176.42 295.44,176.31 295.69,176.29 295.94,176.27 296.18,176.33 296.42,176.38 296.64,176.52 296.85,176.65 297.01,176.84 297.17,177.04 297.26,177.27 297.34,177.51 297.35,177.76 297.36,178.01 297.29,178.25 297.22,178.49 297.08,178.69 296.93,178.90 296.73,179.05 296.53,179.20 296.29,179.27 296.05,179.35 295.80,179.34 295.55,179.34 295.31,179.26 295.08,179.17 295.08,179.17 295.08,179.17 293.67,178.30 292.26,177.43 290.30,176.36 288.33,175.30 284.05,172.94 279.77,170.58 274.64,167.89 269.51,165.20 267.61,163.94 265.72,162.69 264.85,161.98 263.98,161.27 262.11,160.01 260.23,158.76 256.47,156.20 252.71,153.64 247.69,150.30 242.66,146.96 235.32,141.61 227.97,136.25 223.56,133.32 219.14,130.39 211.32,125.63 203.50,120.87 193.98,115.08 184.45,109.30 175.19,103.04 165.94,96.77 153.51,88.64 141.08,80.50 129.90,73.40 118.72,66.30 103.61,57.43 88.50,48.55 72.31,39.84 56.11,31.13 44.38,24.63 32.64,18.13 19.63,11.34 6.62,4.55 2.99,2.99 -0.62,1.42 -0.79,1.33 -0.95,1.23 -1.08,1.10 -1.22,0.97 -1.32,0.81 -1.41,0.65 -1.47,0.47 -1.53,0.29 -1.54,0.10 -1.56,-0.08 -1.52,-0.26 -1.49,-0.45 -1.41,-0.62 -1.34,-0.79 -1.22,-0.94 -1.11,-1.09 -0.96,-1.21 -0.81,-1.33 -0.64,-1.40 -0.47,-1.48 -0.29,-1.52 -0.10,-1.55 0.08,-1.54 0.26,-1.53 0.44,-1.48 0.62,-1.42 0.62,-1.42 L 0.62,-1.42 Z"></path></g><g transform="translate(1002.9017333984375 15.493453979492188) rotate(0 -88.15631103515625 99.11436462402344)" stroke="none"><path fill="#1e1e1e" d="M 1.01,1.18 Q 1.01,1.18 -1.07,2.92 -3.15,4.67 -6.22,7.14 -9.29,9.61 -12.00,12.27 -14.71,14.93 -18.37,18.78 -22.03,22.64 -28.32,29.24 -34.61,35.84 -40.04,41.86 -45.48,47.89 -50.04,53.14 -54.60,58.40 -59.02,62.89 -63.44,67.39 -68.23,72.81 -73.02,78.24 -76.78,82.27 -80.54,86.30 -85.69,92.17 -90.85,98.04 -95.69,103.18 -100.53,108.32 -105.86,114.36 -111.20,120.40 -114.85,124.96 -118.51,129.51 -121.26,133.18 -124.02,136.84 -127.85,141.26 -131.67,145.68 -135.66,150.31 -139.65,154.94 -143.50,159.66 -147.36,164.39 -149.93,167.64 -152.50,170.89 -155.25,174.49 -158.00,178.08 -159.31,179.75 -160.62,181.43 -161.58,182.81 -162.53,184.18 -163.43,185.94 -164.34,187.69 -164.77,188.77 -165.20,189.86 -165.74,191.15 -166.29,192.44 -167.06,193.36 -167.84,194.28 -168.58,195.50 -169.32,196.73 -170.29,197.43 -171.25,198.14 -172.87,199.37 -174.50,200.60 -174.93,200.83 -175.35,201.06 -175.83,201.13 -176.31,201.21 -176.79,201.13 -177.26,201.06 -177.69,200.83 -178.12,200.60 -178.45,200.25 -178.78,199.90 -178.99,199.46 -179.19,199.02 -179.24,198.54 -179.29,198.06 -179.19,197.59 -179.08,197.12 -178.83,196.70 -178.58,196.29 -178.22,195.97 -177.85,195.66 -177.40,195.48 -176.95,195.30 -176.47,195.28 -175.98,195.25 -175.52,195.38 -175.05,195.51 -174.65,195.78 -174.25,196.05 -173.96,196.44 -173.67,196.82 -173.51,197.28 -173.36,197.74 -173.36,198.23 -173.36,198.71 -173.51,199.17 -173.67,199.63 -173.96,200.01 -174.25,200.39 -174.65,200.67 -175.05,200.94 -175.52,201.07 -175.99,201.20 -176.47,201.17 -176.95,201.14 -177.40,200.96 -177.85,200.78 -178.22,200.47 -178.59,200.16 -178.84,199.74 -179.09,199.33 -179.19,198.86 -179.29,198.38 -179.24,197.90 -179.19,197.42 -178.98,196.98 -178.78,196.54 -178.45,196.19 -178.11,195.84 -178.12,195.84 -178.12,195.84 -175.42,193.99 -172.72,192.14 -171.83,191.03 -170.94,189.92 -170.01,188.85 -169.08,187.77 -168.35,186.75 -167.63,185.73 -166.26,184.05 -164.89,182.37 -163.79,181.09 -162.70,179.80 -161.39,178.14 -160.09,176.48 -157.32,172.87 -154.56,169.26 -151.98,165.99 -149.39,162.73 -145.52,157.98 -141.64,153.22 -137.65,148.59 -133.66,143.96 -129.89,139.61 -126.12,135.25 -123.34,131.56 -120.56,127.87 -116.87,123.26 -113.17,118.66 -107.81,112.59 -102.45,106.52 -97.64,101.41 -92.84,96.30 -87.65,90.40 -82.47,84.49 -78.74,80.49 -75.01,76.49 -70.17,71.00 -65.34,65.52 -60.98,61.08 -56.62,56.64 -52.05,51.36 -47.48,46.08 -42.03,40.02 -36.58,33.96 -30.31,27.35 -24.04,20.74 -20.36,16.83 -16.69,12.92 -13.91,10.15 -11.12,7.38 -8.11,4.89 -5.10,2.40 -3.05,0.60 -1.01,-1.18 -0.85,-1.29 -0.70,-1.39 -0.52,-1.45 -0.34,-1.52 -0.16,-1.54 0.02,-1.56 0.21,-1.53 0.39,-1.51 0.57,-1.44 0.74,-1.37 0.90,-1.26 1.05,-1.15 1.17,-1.00 1.30,-0.86 1.38,-0.69 1.46,-0.52 1.51,-0.34 1.55,-0.16 1.55,0.02 1.54,0.21 1.49,0.39 1.45,0.57 1.36,0.74 1.27,0.90 1.14,1.04 1.01,1.18 1.01,1.18 L 1.01,1.18 Z"></path></g><g stroke-linecap="round" transform="translate(416.9781494140625 612.4444122314453) rotate(0 74.84292602539062 26.497161865234375)"><path d="M13.25 0 M13.25 0 C50.43 0.93, 84.41 -0.39, 136.44 0 M13.25 0 C38.48 -1.55, 65.12 1.02, 136.44 0 M136.44 0 C147.38 1.46, 145.69 3.31, 149.69 13.25 M136.44 0 C144.65 -2.56, 145.87 4.54, 149.69 13.25 M149.69 13.25 C148.23 18.9, 151.43 27.63, 149.69 39.75 M149.69 13.25 C147.48 22.91, 149.09 31.79, 149.69 39.75 M149.69 39.75 C149.81 44.8, 146.09 51.79, 136.44 52.99 M149.69 39.75 C154.17 51.05, 141.72 48.51, 136.44 52.99 M136.44 52.99 C104.77 53.47, 69.05 53.86, 13.25 52.99 M136.44 52.99 C92.18 51.13, 48.4 52.2, 13.25 52.99 M13.25 52.99 C2.6 53.46, 2.42 50.98, 0 39.75 M13.25 52.99 C5.74 55.54, 0.19 49.37, 0 39.75 M0 39.75 C-2.45 31.09, 2.78 31.63, 0 13.25 M0 39.75 C1.13 32.89, 1.17 23.27, 0 13.25 M0 13.25 C-0.44 8.39, 6.77 2.91, 13.25 0 M0 13.25 C-1.54 0.94, 3.7 1.2, 13.25 0" stroke="#1e1e1e" stroke-width="1" fill="none"></path></g><g transform="translate(465.9110870361328 626.4415740966797) rotate(0 25.909988403320312 12.5)"><text x="25.909988403320312" y="0" font-family="HanziPen SC, HanziPen Remote, Virgil, KaiTi, Segoe UI Emoji" font-size="20px" fill="#1e1e1e" text-anchor="middle" style="white-space: pre;" direction="ltr" dominant-baseline="text-before-edge">gh.yml</text></g><g mask="url(#mask-GiDkotHadgwXuhZdIN19S)" stroke-linecap="round"><g transform="translate(122.36674910682416 497.1487579345703) rotate(0 142.88096376209157 57.65132308904737)"><path d="M1.68 -1.32 C49.81 17.99, 239.41 97.47, 286.61 116.62 M-0.85 4.14 C47.28 22.55, 238.1 93.76, 285.44 112.37" stroke="#1e1e1e" stroke-width="1" fill="none"></path></g><g transform="translate(122.36674910682416 497.1487579345703) rotate(0 142.88096376209157 57.65132308904737)"><path d="M253.56 114.69 C264.11 111.97, 266.45 109.57, 284.53 108.95 M256.65 113.11 C265.95 113.1, 275.4 112.49, 283.97 112.55" stroke="#1e1e1e" stroke-width="1" fill="none"></path></g><g transform="translate(122.36674910682416 497.1487579345703) rotate(0 142.88096376209157 57.65132308904737)"><path d="M260.88 95.52 C269.91 97.14, 270.63 98.99, 284.53 108.95 M263.97 93.93 C270.67 100.3, 277.69 106.04, 283.97 112.55" stroke="#1e1e1e" stroke-width="1" fill="none"></path></g></g><mask id="mask-GiDkotHadgwXuhZdIN19S"><rect x="0" y="0" fill="#fff" width="507.0279786401279" height="712.356229459582"></rect><rect x="200.117400189394" y="542.2524936970763" fill="#000" width="129.15992736816406" height="25" opacity="1"></rect></mask><g transform="translate(200.11740018939395 542.2524936970763) rotate(0 65.13031267952172 12.547587326541532)"><text x="64.57996368408203" y="0" font-family="HanziPen SC, HanziPen Remote, Virgil, KaiTi, Segoe UI Emoji" font-size="20px" fill="#1e1e1e" text-anchor="middle" style="white-space: pre;" direction="ltr" dominant-baseline="text-before-edge">When not in use</text></g></svg>
