<svg version="1.1" xmlns="http://www.w3.org/2000/svg" viewBox="0 0 919.0039561033715 332.7329423703253" width="919.0039561033715" height="332.7329423703253">
  <!-- svg-source:excalidraw -->

  <defs>
    <style class="style-fonts">
      @font-face {
        font-family: "Virgil";
        src: url("https://unpkg.com/revedraw@1.0.0-alpha.10/dist/excalidraw-assets/Virgil.woff2");
      }
      @font-face {
        font-family: "Cascadia";
        src: url("https://unpkg.com/revedraw@1.0.0-alpha.10/dist/excalidraw-assets/Cascadia.woff2");
      }
    </style>

  </defs>
  <rect x="0" y="0" width="919.0039561033715" height="332.7329423703253" fill="#ffffff"></rect><g stroke-linecap="round" transform="translate(112.6534312010277 137.354248046875) rotate(0 68.58636474609375 22.453842163085938)"><path d="M11.23 0 M11.23 0 C40.44 1.77, 69.12 0.08, 125.95 0 M11.23 0 C39.09 -0.58, 66.67 -0.33, 125.95 0 M125.95 0 C134.48 0.24, 135.27 4.6, 137.17 11.23 M125.95 0 C131.4 -0.66, 138.55 3.23, 137.17 11.23 M137.17 11.23 C136.29 17.27, 137.6 26.12, 137.17 33.68 M137.17 11.23 C136.61 18, 136.98 26.44, 137.17 33.68 M137.17 33.68 C135.87 40.7, 131.86 44.52, 125.95 44.91 M137.17 33.68 C137.11 42.66, 134.41 43.38, 125.95 44.91 M125.95 44.91 C91.22 45.37, 55.42 46.02, 11.23 44.91 M125.95 44.91 C92.58 44.81, 57.61 46.12, 11.23 44.91 M11.23 44.91 C5.26 43.77, 1.98 42.72, 0 33.68 M11.23 44.91 C3.79 47.03, -0.79 39, 0 33.68 M0 33.68 C0.51 24.14, -1.64 17.68, 0 11.23 M0 33.68 C-0.55 25.95, -0.3 16.23, 0 11.23 M0 11.23 C-1.67 3.45, 4.52 -1.23, 11.23 0 M0 11.23 C-0.97 4.16, 2.78 1.21, 11.23 0" stroke="#1e1e1e" stroke-width="1" fill="none"></path></g><g transform="translate(141.6308481932152 147.52816772460938) rotate(0 42.32996368408203 12.5)"><text x="0" y="0" font-family="HanziPen SC, HanziPen Remote, Virgil, KaiTi, Segoe UI Emoji" font-size="20px" fill="#1e1e1e" text-anchor="start" style="white-space: pre;" direction="ltr" dominant-baseline="text-before-edge">scratch.md</text></g><g mask="url(#mask-eMPUVfVEku-9PJvPjYdT7)" stroke-linecap="round"><g transform="translate(257.6973855335623 158.64581444382304) rotate(0 52.92806856344515 0.18160824534734843)"><path d="M0.69 -0.85 C18.56 -0.87, 88.74 0.72, 106.27 1.05 M-0.41 1.32 C17.4 1.42, 87.81 -1.17, 105.36 -0.95" stroke="#1e1e1e" stroke-width="1" fill="none"></path></g><g transform="translate(257.6973855335623 158.64581444382304) rotate(0 52.92806856344515 0.18160824534734843)"><path d="M75.91 9.85 C83.72 6.64, 90.02 5.11, 105.54 0.99 M77.19 9.11 C87.2 5.45, 96.8 2.19, 105.93 -0.71" stroke="#1e1e1e" stroke-width="1" fill="none"></path></g><g transform="translate(257.6973855335623 158.64581444382304) rotate(0 52.92806856344515 0.18160824534734843)"><path d="M75.6 -10.67 C83.68 -9.39, 90.05 -6.44, 105.54 0.99 M76.88 -11.4 C86.93 -7.8, 96.65 -3.79, 105.93 -0.71" stroke="#1e1e1e" stroke-width="1" fill="none"></path></g></g><mask id="mask-eMPUVfVEku-9PJvPjYdT7"><rect x="0" y="0" fill="#fff" width="463.89632872006825" height="259.4749594232699"></rect><rect x="294.52686811314345" y="146.5603869335465" fill="#000" width="32.53997802734375" height="25" opacity="1"></rect></mask><g transform="translate(294.52686811314345 146.5603869335465) rotate(0 16.098585983863984 12.26703575562388)"><text x="16.269989013671875" y="0" font-family="HanziPen SC, HanziPen Remote, Virgil, KaiTi, Segoe UI Emoji" font-size="20px" fill="#1e1e1e" text-anchor="middle" style="white-space: pre;" direction="ltr" dominant-baseline="text-before-edge">sync</text></g><g transform="translate(141.52959086899645 10) rotate(0 76.05996704101562 37.5)"><text x="0" y="0" font-family="HanziPen SC, HanziPen Remote, Virgil, KaiTi, Segoe UI Emoji" font-size="20px" fill="#1e1e1e" text-anchor="start" style="white-space: pre;" direction="ltr" dominant-baseline="text-before-edge">## 2023/11/25</text><text x="0" y="25" font-family="HanziPen SC, HanziPen Remote, Virgil, KaiTi, Segoe UI Emoji" font-size="20px" fill="#1e1e1e" text-anchor="start" style="white-space: pre;" direction="ltr" dominant-baseline="text-before-edge">## 2023/11/26</text><text x="0" y="50" font-family="HanziPen SC, HanziPen Remote, Virgil, KaiTi, Segoe UI Emoji" font-size="20px" fill="#1e1e1e" text-anchor="start" style="white-space: pre;" direction="ltr" dominant-baseline="text-before-edge">## 2023/11/27</text></g><g stroke-linecap="round" transform="translate(373.5625498533715 138.9964599609375) rotate(0 72.35357666015625 20.444549560546875)"><path d="M10.22 0 M10.22 0 C45.05 0.66, 83.56 -0.85, 134.48 0 M10.22 0 C42.11 -0.15, 72.83 -0.93, 134.48 0 M134.48 0 C143 0.66, 143.39 4.79, 144.71 10.22 M134.48 0 C142.74 2.28, 142.59 2.61, 144.71 10.22 M144.71 10.22 C142.67 13.15, 143.07 20.5, 144.71 30.67 M144.71 10.22 C144.31 15.38, 145.17 21.42, 144.71 30.67 M144.71 30.67 C143.37 37.38, 140.48 40.58, 134.48 40.89 M144.71 30.67 C144.31 37.62, 142.69 43.15, 134.48 40.89 M134.48 40.89 C85.14 42.81, 34.92 44.01, 10.22 40.89 M134.48 40.89 C104.47 41.33, 74.53 40.25, 10.22 40.89 M10.22 40.89 C4.04 42.7, 0.63 35.69, 0 30.67 M10.22 40.89 C2.91 41.8, -1.07 37.69, 0 30.67 M0 30.67 C-1.18 26.32, 0.66 23.62, 0 10.22 M0 30.67 C-0.06 25.89, -0.73 22.8, 0 10.22 M0 10.22 C1.75 4.75, 2.28 -0.05, 10.22 0 M0 10.22 C-0.08 3.12, 2.42 -1.09, 10.22 0" stroke="#1e1e1e" stroke-width="1" fill="none"></path></g><g transform="translate(381.22764995102773 145.16497802734375) rotate(0 65.07991027832031 13.112518310546875)"><text x="0" y="0" font-family="HanziPen SC, HanziPen Remote, Virgil, KaiTi, Segoe UI Emoji" font-size="20.980029296875px" fill="#1e1e1e" text-anchor="start" style="white-space: pre;" direction="ltr" dominant-baseline="text-before-edge">log-2023xx.md</text></g><g mask="url(#mask-odPirJD6iQl-tnMXSjtej)" stroke-linecap="round"><g transform="translate(260.6124367976714 182.5843395941672) rotate(0 21.1960377485878 52.72537176887258)"><path d="M-0.01 1.03 C7.11 18.4, 36.42 86.27, 43.87 103.39 M-1.48 0.53 C5.39 18.17, 35.28 88.08, 42.92 104.92" stroke="#1e1e1e" stroke-width="1" fill="none"></path></g><g transform="translate(260.6124367976714 182.5843395941672) rotate(0 21.1960377485878 52.72537176887258)"><path d="M23.93 83.19 C30.24 93.1, 39 101.37, 42.03 103.51 M21.67 83.54 C29.7 90.09, 36.68 97.91, 42.95 105.83" stroke="#1e1e1e" stroke-width="1" fill="none"></path></g><g transform="translate(260.6124367976714 182.5843395941672) rotate(0 21.1960377485878 52.72537176887258)"><path d="M42.73 74.96 C41.56 88.12, 42.91 99.63, 42.03 103.51 M40.47 75.32 C42.23 84.75, 42.89 95.33, 42.95 105.83" stroke="#1e1e1e" stroke-width="1" fill="none"></path></g></g><mask id="mask-odPirJD6iQl-tnMXSjtej"><rect x="0" y="0" fill="#fff" width="404.49669040705027" height="385.96492809648737"></rect><rect x="246.17458923712644" y="221.77463384532734" fill="#000" width="72.75994873046875" height="25" opacity="1"></rect></mask><g transform="translate(246.1745892371265 221.77463384532734) rotate(0 35.63388530913278 13.535077517712494)"><text x="36.379974365234375" y="0" font-family="HanziPen SC, HanziPen Remote, Virgil, KaiTi, Segoe UI Emoji" font-size="20px" fill="#1e1e1e" text-anchor="middle" style="white-space: pre;" direction="ltr" dominant-baseline="text-before-edge">if TODO</text></g><g stroke-linecap="round" transform="translate(306.017994189309 277.53985595703125) rotate(0 56.5 19)"><path d="M9.5 0 M9.5 0 C36.01 -1.25, 61.36 -0.28, 103.5 0 M9.5 0 C31.91 -0.5, 53.49 0.17, 103.5 0 M103.5 0 C108.12 1.68, 111.35 4.8, 113 9.5 M103.5 0 C108.17 1.39, 113.81 1.94, 113 9.5 M113 9.5 C114.01 18.69, 112.41 24.71, 113 28.5 M113 9.5 C112.2 16.51, 111.98 24.18, 113 28.5 M113 28.5 C112.69 36.46, 111.37 36.85, 103.5 38 M113 28.5 C111.75 36.74, 111.54 39.21, 103.5 38 M103.5 38 C82.67 37.47, 60.24 39.66, 9.5 38 M103.5 38 C74.94 38.38, 44.74 37, 9.5 38 M9.5 38 C3.37 36.63, -0.56 34.54, 0 28.5 M9.5 38 C4 36.47, 1.96 35.79, 0 28.5 M0 28.5 C-1.58 22.63, 1.3 18.91, 0 9.5 M0 28.5 C-0.29 21.89, 0.39 15.54, 0 9.5 M0 9.5 C-0.14 5.15, 4.49 -1.89, 9.5 0 M0 9.5 C-0.2 2.43, 4.48 -0.87, 9.5 0" stroke="#1e1e1e" stroke-width="1" fill="none"></path></g><g transform="translate(334.47801616196523 284.03985595703125) rotate(0 28.03997802734375 12.5)"><text x="28.03997802734375" y="0" font-family="HanziPen SC, HanziPen Remote, Virgil, KaiTi, Segoe UI Emoji" font-size="20px" fill="#1e1e1e" text-anchor="middle" style="white-space: pre;" direction="ltr" dominant-baseline="text-before-edge">TIL.md</text></g><g mask="url(#mask-gIMwOLYzvMF4Z3xJkDVBm)" stroke-linecap="round"><g transform="translate(529.5799075701832 160.88827661998084) rotate(0 45.46420188519147 0.7355360552120374)"><path d="M-0.19 0.79 C15.13 1.1, 77.04 1.44, 92.68 1.69 M-1.75 0.16 C13.35 0.12, 75.85 -0.28, 91.7 -0.22" stroke="#1e1e1e" stroke-width="1" fill="none"></path></g><g transform="translate(529.5799075701832 160.88827661998084) rotate(0 45.46420188519147 0.7355360552120374)"><path d="M64.84 10 C74.35 7.98, 85.53 4.36, 92.89 -0.79 M64.29 9.88 C73.85 6.84, 84.71 1.93, 92.56 -1.07" stroke="#1e1e1e" stroke-width="1" fill="none"></path></g><g transform="translate(529.5799075701832 160.88827661998084) rotate(0 45.46420188519147 0.7355360552120374)"><path d="M64.8 -10.52 C74.29 -5.17, 85.48 -1.41, 92.89 -0.79 M64.25 -10.64 C73.96 -5.85, 84.83 -2.95, 92.56 -1.07" stroke="#1e1e1e" stroke-width="1" fill="none"></path></g></g><mask id="mask-gIMwOLYzvMF4Z3xJkDVBm"><rect x="0" y="0" fill="#fff" width="722.3220745155116" height="262.18009481220435"></rect><rect x="556.9110053861092" y="149.03418571609257" fill="#000" width="38.07997131347656" height="25" opacity="1"></rect></mask><g transform="translate(556.9110053861091 149.03418571609257) rotate(0 18.13310406926547 12.589626959100315)"><text x="19.03998565673828" y="0" font-family="HanziPen SC, HanziPen Remote, Virgil, KaiTi, Segoe UI Emoji" font-size="20px" fill="#1e1e1e" text-anchor="middle" style="white-space: pre;" direction="ltr" dominant-baseline="text-before-edge">PICK</text></g><g stroke-linecap="round"><g transform="translate(114.21953227524645 322.8612060546875) rotate(0 25.311879103325793 -68.9313738666475)"><path d="M0.08 -0.13 C8.91 -22.94, 43.58 -114.9, 51.96 -137.73 M-1.33 -1.24 C7.48 -23.83, 42.31 -114.08, 51.32 -136.51" stroke="#1e1e1e" stroke-width="1" fill="none"></path></g><g transform="translate(114.21953227524645 322.8612060546875) rotate(0 25.311879103325793 -68.9313738666475)"><path d="M50.35 -105.55 C49.94 -114.64, 51.11 -118.54, 50.71 -135.24 M51.24 -105.59 C49.99 -114.67, 50.88 -123.11, 51.21 -136.67" stroke="#1e1e1e" stroke-width="1" fill="none"></path></g><g transform="translate(114.21953227524645 322.8612060546875) rotate(0 25.311879103325793 -68.9313738666475)"><path d="M31.25 -113.05 C34.86 -120.55, 40.1 -122.85, 50.71 -135.24 M32.13 -113.09 C36.39 -119.9, 42.71 -126.2, 51.21 -136.67" stroke="#1e1e1e" stroke-width="1" fill="none"></path></g></g><mask></mask><g stroke-linecap="round"><g transform="translate(70.47002055649645 232.2799072265625) rotate(0 30.78041342074559 -27.76502211913467)"><path d="M0.66 1.04 C10.65 -8.33, 50 -47.21, 59.83 -56.57 M-0.45 0.54 C9.92 -8.64, 51.62 -45.74, 62.02 -55.32" stroke="#1e1e1e" stroke-width="1" fill="none"></path></g><g transform="translate(70.47002055649645 232.2799072265625) rotate(0 30.78041342074559 -27.76502211913467)"><path d="M49.7 -30.47 C51.18 -38.51, 57.66 -43.03, 62.7 -55.26 M48.27 -29.2 C51.37 -34.65, 54.45 -42.96, 62.02 -56.15" stroke="#1e1e1e" stroke-width="1" fill="none"></path></g><g transform="translate(70.47002055649645 232.2799072265625) rotate(0 30.78041342074559 -27.76502211913467)"><path d="M35.95 -45.7 C41.35 -49.42, 51.79 -49.55, 62.7 -55.26 M34.52 -44.43 C41.04 -45.95, 47.58 -50.42, 62.02 -56.15" stroke="#1e1e1e" stroke-width="1" fill="none"></path></g></g><mask></mask><g mask="url(#mask-KFrvx40czbY4Sd_Y_UYWq)" stroke-linecap="round"><g transform="translate(11.4404185057152 105.6036376953125) rotate(0 58.90409405415413 26.54903863506857)"><path d="M0.01 -0.25 C19.77 8.7, 99.5 45.45, 119.25 54.52 M-1.44 -1.42 C18.08 7.1, 97.78 43.87, 118.16 52.78" stroke="#1e1e1e" stroke-width="1" fill="none"></path></g><g transform="translate(11.4404185057152 105.6036376953125) rotate(0 58.90409405415413 26.54903863506857)"><path d="M87.83 50.09 C100.17 49.63, 110.31 53.9, 118.34 52.36 M88.2 50.98 C95.87 50.53, 103.65 52.78, 118.32 52.54" stroke="#1e1e1e" stroke-width="1" fill="none"></path></g><g transform="translate(11.4404185057152 105.6036376953125) rotate(0 58.90409405415413 26.54903863506857)"><path d="M96.26 31.38 C105.71 37.62, 112.83 48.59, 118.34 52.36 M96.62 32.27 C102.04 36.45, 107.7 43.41, 118.32 52.54" stroke="#1e1e1e" stroke-width="1" fill="none"></path></g></g><mask id="mask-KFrvx40czbY4Sd_Y_UYWq"><rect x="0" y="0" fill="#fff" width="230.96440532212145" height="259.4011535644531"></rect><rect x="51.0124323606957" y="120.00239562988281" fill="#000" width="40.37995910644531" height="25" opacity="1"></rect></mask><g transform="translate(51.0124323606957 120.00239562988281) rotate(0 19.33208019917366 12.150280700498257)"><text x="20.189979553222656" y="0" font-family="HanziPen SC, HanziPen Remote, Virgil, KaiTi, Segoe UI Emoji" font-size="20px" fill="#1e1e1e" text-anchor="middle" style="white-space: pre;" direction="ltr" dominant-baseline="text-before-edge">input</text></g><g mask="url(#mask-Vw1Uaoj976nopxcF5mn0j)" stroke-linecap="round"><g transform="translate(513.4882739852854 186.76795776882045) rotate(0 44.06741264001147 35.94249108468128)"><path d="M0.37 -0.61 C14.82 11.41, 72.22 58.95, 86.71 71.17 M-0.89 1.68 C13.95 13.95, 74.46 60.95, 89.03 72.5" stroke="#1e1e1e" stroke-width="1" fill="none"></path></g><g transform="translate(513.4882739852854 186.76795776882045) rotate(0 44.06741264001147 35.94249108468128)"><path d="M59.5 61.93 C68.3 65.66, 79.4 68.84, 89.09 72.88 M60.09 62.35 C67.4 65.7, 76.04 68.05, 88.4 72.65" stroke="#1e1e1e" stroke-width="1" fill="none"></path></g><g transform="translate(513.4882739852854 186.76795776882045) rotate(0 44.06741264001147 35.94249108468128)"><path d="M72.16 45.78 C77.05 54.39, 84.35 62.4, 89.09 72.88 M72.76 46.2 C76.81 53.77, 82.08 60.44, 88.4 72.65" stroke="#1e1e1e" stroke-width="1" fill="none"></path></g></g><mask id="mask-Vw1Uaoj976nopxcF5mn0j"><rect x="0" y="0" fill="#fff" width="700.9420128888686" height="358.3461538580964"></rect><rect x="538.1751577803386" y="210.05705581345842" fill="#000" width="38.07997131347656" height="25" opacity="1"></rect></mask><g transform="translate(538.1751577803386 210.05705581345842) rotate(0 19.380528844958178 12.653393040043312)"><text x="19.03998565673828" y="0" font-family="HanziPen SC, HanziPen Remote, Virgil, KaiTi, Segoe UI Emoji" font-size="20px" fill="#1e1e1e" text-anchor="middle" style="white-space: pre;" direction="ltr" dominant-baseline="text-before-edge">PICK</text></g><g stroke-linecap="round" transform="translate(602.416431689309 239.31561279296875) rotate(0 61.46002197265625 19.062957763671875)"><path d="M9.53 0 M9.53 0 C45.31 -0.32, 81.73 1.2, 113.39 0 M9.53 0 C38.38 0.75, 66.72 0.82, 113.39 0 M113.39 0 C118.77 1.03, 123.28 3.93, 122.92 9.53 M113.39 0 C119.64 -2.09, 122.03 2.83, 122.92 9.53 M122.92 9.53 C122.61 17.49, 124.21 24.19, 122.92 28.59 M122.92 9.53 C122.83 15.76, 122.52 21.3, 122.92 28.59 M122.92 28.59 C121.81 33.36, 119.47 36.64, 113.39 38.13 M122.92 28.59 C121.88 33.51, 119.76 38.92, 113.39 38.13 M113.39 38.13 C83.55 38.7, 50.72 38.65, 9.53 38.13 M113.39 38.13 C78 37.4, 41.18 36.42, 9.53 38.13 M9.53 38.13 C1.53 36.58, -1.93 36.35, 0 28.59 M9.53 38.13 C5.42 37.12, 0.39 35.62, 0 28.59 M0 28.59 C1.37 23.93, 1.09 17.57, 0 9.53 M0 28.59 C0.74 22.95, 0.84 18.44, 0 9.53 M0 9.53 C0.29 1.5, 3.04 0.15, 9.53 0 M0 9.53 C-0.95 4.35, 5.22 1.59, 9.53 0" stroke="#1e1e1e" stroke-width="1" fill="none"></path></g><g transform="translate(648.316463732766 245.87857055664062) rotate(0 15.559989929199219 12.5)"><text x="15.559989929199219" y="0" font-family="HanziPen SC, HanziPen Remote, Virgil, KaiTi, Segoe UI Emoji" font-size="20px" fill="#1e1e1e" text-anchor="middle" style="white-space: pre;" direction="ltr" dominant-baseline="text-before-edge">blog</text></g><g transform="translate(750.8445322752465 253.49237060546875) rotate(0 79.0797119140625 -58.846771240234375)" stroke="none"><path fill="#1e1e1e" d="M 0.01,-1.56 Q 0.01,-1.56 5.34,-1.48 10.67,-1.41 17.56,-1.84 24.45,-2.26 33.10,-3.15 41.75,-4.03 52.37,-5.69 62.99,-7.35 75.71,-10.03 88.42,-12.71 101.11,-16.55 113.80,-20.39 123.07,-24.77 132.35,-29.16 139.37,-38.48 146.39,-47.81 149.39,-54.83 152.38,-61.84 153.01,-67.03 153.64,-72.22 152.33,-77.96 151.02,-83.69 148.31,-88.49 145.60,-93.29 138.73,-99.03 131.86,-104.78 116.12,-108.14 100.38,-111.49 91.08,-112.31 81.77,-113.13 75.03,-112.15 68.30,-111.17 63.84,-109.54 59.38,-107.91 56.64,-106.55 53.90,-105.18 52.36,-103.89 50.83,-102.60 50.18,-100.97 49.53,-99.34 49.56,-99.08 49.58,-98.82 49.51,-98.56 49.45,-98.31 49.31,-98.08 49.17,-97.86 48.97,-97.70 48.76,-97.53 48.51,-97.44 48.27,-97.35 48.00,-97.34 47.74,-97.33 47.49,-97.41 47.24,-97.49 47.02,-97.64 46.81,-97.79 46.66,-98.01 46.50,-98.22 46.43,-98.47 46.35,-98.72 46.35,-98.98 46.36,-99.25 46.45,-99.49 46.54,-99.74 46.71,-99.95 46.87,-100.15 47.09,-100.29 47.31,-100.44 47.57,-100.50 47.82,-100.56 48.08,-100.54 48.35,-100.52 48.59,-100.42 48.83,-100.32 49.03,-100.14 49.22,-99.97 49.35,-99.74 49.48,-99.51 49.53,-99.25 49.58,-98.99 49.55,-98.73 49.51,-98.47 49.40,-98.23 49.28,-98.00 49.09,-97.81 48.91,-97.63 48.67,-97.51 48.44,-97.39 48.18,-97.36 47.92,-97.32 47.66,-97.37 47.40,-97.42 47.17,-97.55 46.94,-97.68 46.77,-97.87 46.59,-98.07 46.49,-98.31 46.38,-98.55 46.38,-98.55 46.38,-98.55 46.92,-100.91 47.46,-103.28 48.30,-103.95 49.15,-104.63 50.94,-106.08 52.72,-107.53 55.60,-108.96 58.48,-110.38 63.20,-112.08 67.91,-113.77 74.95,-114.76 81.98,-115.75 91.46,-114.91 100.94,-114.07 117.18,-110.46 133.43,-106.86 140.65,-100.74 147.86,-94.62 150.73,-89.46 153.59,-84.30 154.93,-78.12 156.26,-71.95 155.54,-66.38 154.83,-60.82 151.67,-53.52 148.52,-46.21 141.06,-36.52 133.61,-26.83 124.09,-22.32 114.58,-17.80 101.79,-13.92 88.99,-10.04 76.21,-7.33 63.42,-4.62 52.73,-2.93 42.04,-1.23 33.34,-0.30 24.64,0.61 17.64,1.09 10.65,1.57 5.31,1.56 -0.01,1.56 -0.19,1.53 -0.38,1.51 -0.56,1.44 -0.73,1.37 -0.89,1.26 -1.04,1.16 -1.16,1.01 -1.29,0.87 -1.37,0.71 -1.46,0.54 -1.50,0.35 -1.55,0.17 -1.55,-0.01 -1.54,-0.19 -1.50,-0.38 -1.45,-0.56 -1.36,-0.73 -1.27,-0.89 -1.15,-1.03 -1.02,-1.17 -0.87,-1.28 -0.71,-1.38 -0.53,-1.45 -0.36,-1.51 -0.17,-1.54 0.01,-1.56 0.01,-1.56 L 0.01,-1.56 Z"></path></g><g transform="translate(808.999439501809 127.15240478515625) rotate(0 7.32623291015625 17.60943603515625)" stroke="none"><path fill="#1e1e1e" d="M 1.92,0.41 Q 1.92,0.41 1.25,3.07 0.58,5.72 -0.30,8.22 -1.18,10.72 -2.37,13.35 -3.56,15.99 -5.37,19.26 -7.18,22.53 -8.43,24.54 -9.68,26.55 -10.63,28.19 -11.59,29.83 -12.08,31.10 -12.57,32.36 -12.30,33.43 -12.03,34.49 -12.80,33.76 -13.58,33.02 -6.99,32.00 -0.40,30.97 3.55,30.82 7.52,30.68 11.55,30.65 15.59,30.62 18.64,30.82 21.69,31.02 25.28,31.40 28.87,31.78 29.14,31.87 29.41,31.96 29.64,32.13 29.87,32.30 30.03,32.54 30.19,32.77 30.27,33.05 30.35,33.33 30.33,33.61 30.32,33.90 30.22,34.16 30.11,34.43 29.93,34.65 29.74,34.87 29.50,35.02 29.25,35.17 28.97,35.23 28.69,35.30 28.41,35.27 28.12,35.24 27.86,35.12 27.60,35.00 27.39,34.80 27.18,34.61 27.05,34.35 26.91,34.10 26.87,33.82 26.82,33.54 26.86,33.25 26.91,32.97 27.04,32.72 27.17,32.46 27.38,32.26 27.59,32.07 27.85,31.94 28.11,31.82 28.39,31.79 28.67,31.76 28.96,31.82 29.24,31.88 29.48,32.02 29.73,32.17 29.91,32.39 30.10,32.61 30.21,32.87 30.32,33.14 30.33,33.42 30.35,33.71 30.28,33.99 30.20,34.26 30.04,34.50 29.88,34.74 29.65,34.91 29.43,35.09 29.16,35.18 28.88,35.27 28.60,35.27 28.31,35.28 28.31,35.28 28.31,35.28 24.93,34.77 21.54,34.27 18.61,34.18 15.68,34.10 11.72,34.28 7.75,34.47 3.89,34.82 0.03,35.16 -5.33,35.86 -10.71,36.55 -12.90,36.70 -15.10,36.85 -15.79,35.17 -16.48,33.49 -16.22,32.10 -15.96,30.71 -15.07,29.49 -14.18,28.26 -13.17,26.65 -12.16,25.04 -10.99,23.07 -9.82,21.10 -8.13,17.92 -6.44,14.74 -5.39,12.21 -4.34,9.67 -3.63,7.31 -2.91,4.95 -2.42,2.26 -1.92,-0.41 -1.84,-0.64 -1.76,-0.86 -1.63,-1.06 -1.50,-1.26 -1.33,-1.42 -1.16,-1.59 -0.95,-1.70 -0.74,-1.82 -0.51,-1.88 -0.28,-1.94 -0.05,-1.95 0.18,-1.96 0.41,-1.91 0.64,-1.86 0.86,-1.75 1.07,-1.65 1.25,-1.49 1.43,-1.34 1.57,-1.15 1.71,-0.96 1.80,-0.74 1.89,-0.52 1.93,-0.28 1.96,-0.05 1.94,0.18 1.92,0.42 1.92,0.42 L 1.92,0.41 Z"></path></g><g stroke-linecap="round" transform="translate(655.910328173684 133.42733764648438) rotate(0 57.327392578125 26.183242797851562)"><path d="M13.09 0 M13.09 0 C35.14 1.42, 59.13 1.51, 101.56 0 M13.09 0 C33.89 -1.81, 55.4 -0.62, 101.56 0 M101.56 0 C111.42 0.45, 113.94 4.8, 114.65 13.09 M101.56 0 C108.34 -1.61, 112.91 6.52, 114.65 13.09 M114.65 13.09 C114.79 22.01, 115.29 28.59, 114.65 39.27 M114.65 13.09 C114.11 19.49, 115.53 26.52, 114.65 39.27 M114.65 39.27 C113.51 46.5, 111.31 52.14, 101.56 52.37 M114.65 39.27 C115.36 47.63, 110.89 51.01, 101.56 52.37 M101.56 52.37 C76.11 54.39, 53.56 51.84, 13.09 52.37 M101.56 52.37 C76.89 52.8, 53.21 52.96, 13.09 52.37 M13.09 52.37 C6.35 51.93, -0.16 48.55, 0 39.27 M13.09 52.37 C5.55 53.12, -0.92 48.11, 0 39.27 M0 39.27 C-1.14 31.48, -1.68 24.74, 0 13.09 M0 39.27 C-0.89 31.96, -0.67 26.15, 0 13.09 M0 13.09 C-1.09 3.56, 2.43 -1.84, 13.09 0 M0 13.09 C1.42 6.03, 5.42 -1.5, 13.09 0" stroke="#1e1e1e" stroke-width="1" fill="none"></path></g><g transform="translate(697.5277369261254 147.11058044433594) rotate(0 15.709983825683594 12.5)"><text x="15.709983825683594" y="0" font-family="HanziPen SC, HanziPen Remote, Virgil, KaiTi, Segoe UI Emoji" font-size="20px" fill="#1e1e1e" text-anchor="middle" style="white-space: pre;" direction="ltr" dominant-baseline="text-before-edge">docs</text></g><g mask="url(#mask-_pAKhQuJBMrUKGgGI93q8)" stroke-linecap="round"><g transform="translate(379.8062584261637 266.55310058593756) rotate(0 42.427926868286136 -40.44164450354876)"><path d="M0.52 0.26 C14.76 -13.18, 71.47 -67.75, 85.53 -81.14 M-0.67 -0.65 C13.5 -13.94, 70.93 -67.15, 85.09 -80.17" stroke="#1e1e1e" stroke-width="1" fill="none"></path></g><g transform="translate(379.8062584261637 266.55310058593756) rotate(0 42.427926868286136 -40.44164450354876)"><path d="M71.78 -51.86 C73.86 -61.12, 79.82 -70.35, 85.12 -81.85 M71.77 -53.79 C76.11 -64.62, 82.35 -74.13, 85.96 -79.62" stroke="#1e1e1e" stroke-width="1" fill="none"></path></g><g transform="translate(379.8062584261637 266.55310058593756) rotate(0 42.427926868286136 -40.44164450354876)"><path d="M57.86 -66.94 C64.11 -71.67, 74.3 -76.32, 85.12 -81.85 M57.84 -68.86 C67.63 -73.71, 79.31 -77.33, 85.96 -79.62" stroke="#1e1e1e" stroke-width="1" fill="none"></path></g></g><mask id="mask-_pAKhQuJBMrUKGgGI93q8"><rect x="0" y="0" fill="#fff" width="564.3488776095293" height="446.6302185058595"></rect><rect x="392.5675887697996" y="201.5145416259765" fill="#000" width="59.01995849609375" height="50" opacity="1"></rect></mask><g transform="translate(392.5675887697996 201.51454162597656) rotate(0 29.66659652465023 24.596914456412236)"><text x="29.509979248046875" y="0" font-family="HanziPen SC, HanziPen Remote, Virgil, KaiTi, Segoe UI Emoji" font-size="20px" fill="#1e1e1e" text-anchor="middle" style="white-space: pre;" direction="ltr" dominant-baseline="text-before-edge">if Done</text><text x="29.509979248046875" y="25" font-family="HanziPen SC, HanziPen Remote, Virgil, KaiTi, Segoe UI Emoji" font-size="20px" fill="#1e1e1e" text-anchor="middle" style="white-space: pre;" direction="ltr" dominant-baseline="text-before-edge"></text></g></svg>
