<svg version="1.1" xmlns="http://www.w3.org/2000/svg" viewBox="0 0 1097.0668705955386 550.8748105458915" width="2194.133741191077" height="1101.749621091783">
  <!-- svg-source:excalidraw -->

  <defs>
    <style class="style-fonts">
      @font-face {
        font-family: "Virgil";
        src: url("https://unpkg.com/revedraw@1.0.0-alpha.10/dist/excalidraw-assets/Virgil.woff2");
      }
      @font-face {
        font-family: "Cascadia";
        src: url("https://unpkg.com/revedraw@1.0.0-alpha.10/dist/excalidraw-assets/Cascadia.woff2");
      }
    </style>

  </defs>
  <rect x="0" y="0" width="1097.0668705955386" height="550.8748105458915" fill="#ffffff"></rect><g stroke-linecap="round" transform="translate(253.3938946777148 137.70393678405333) rotate(0.3481145243140338 80.16988470561367 26.906331168322396)"><path d="M5.24 1.91 C5.24 1.91, 5.24 1.91, 5.24 1.91 M5.24 1.91 C5.24 1.91, 5.24 1.91, 5.24 1.91 M1.7 12.08 C3.85 10.55, 5.81 9.68, 12.2 0 M1.7 12.08 C5.76 7, 10.7 3.08, 12.2 0 M2.09 17.72 C6.06 14.95, 14.03 8.91, 15.87 1.87 M2.09 17.72 C8.12 12.24, 13.42 6.7, 15.87 1.87 M1.83 24.12 C4.79 20.26, 6.76 12.02, 20.86 2.23 M1.83 24.12 C9.1 14.78, 14.5 5.96, 20.86 2.23 M2.23 29.76 C6.7 26.77, 15.75 15.29, 26.5 1.84 M2.23 29.76 C11.23 18.05, 22.67 6.55, 26.5 1.84 M1.97 36.16 C11.1 32.24, 16.88 17.8, 31.49 2.2 M1.97 36.16 C11.7 22.3, 25.23 9.01, 31.49 2.2 M0.39 44.07 C9.79 28.52, 22.47 20.05, 37.13 1.8 M0.39 44.07 C7.64 35.03, 15.49 25.72, 37.13 1.8 M2.1 48.2 C12.36 30.71, 30.24 19.33, 42.12 2.16 M2.1 48.2 C10.92 39.44, 17.87 27.68, 42.12 2.16 M5.12 50.83 C20.42 34.76, 32.41 18.83, 47.11 2.52 M5.12 50.83 C20.99 36.03, 31.51 20.34, 47.11 2.52 M8.14 53.45 C24.88 37.61, 37.99 22.58, 52.75 2.13 M8.14 53.45 C22.26 40.72, 32.56 27.44, 52.75 2.13 M13.12 53.81 C23.55 39.31, 33.72 23.58, 57.74 2.49 M13.12 53.81 C20.82 43.84, 31.72 34.12, 57.74 2.49 M18.77 53.41 C34.54 38.9, 50.86 16.22, 63.38 2.09 M18.77 53.41 C35.08 37.06, 51.01 17.17, 63.38 2.09 M23.75 53.77 C33.3 37.94, 50.1 24.25, 68.37 2.45 M23.75 53.77 C40.04 34.93, 57.11 13.5, 68.37 2.45 M29.4 53.38 C41.28 41.17, 56.17 25.69, 74.01 2.06 M29.4 53.38 C41.2 40.41, 49.99 26.41, 74.01 2.06 M34.38 53.74 C43.4 36.66, 57.94 26.21, 79 2.42 M34.38 53.74 C49.36 36.05, 61.64 22.99, 79 2.42 M40.03 53.35 C48.5 44.36, 54.12 34.25, 83.98 2.78 M40.03 53.35 C51.69 42.78, 64.58 27.13, 83.98 2.78 M45.01 53.71 C52.22 39.89, 68.12 25.86, 89.63 2.39 M45.01 53.71 C62.12 33.11, 75.63 14.62, 89.63 2.39 M50 54.07 C64.92 33.26, 85.11 14.2, 94.61 2.75 M50 54.07 C66.36 35.4, 84.8 13.49, 94.61 2.75 M55.64 53.67 C70.36 35.27, 85.59 20.74, 100.26 2.35 M55.64 53.67 C70.22 35.34, 88.05 14.9, 100.26 2.35 M60.63 54.03 C69.43 42.43, 84.51 28.61, 105.24 2.71 M60.63 54.03 C72.01 42.73, 83.17 28.16, 105.24 2.71 M66.27 53.64 C80.44 41.65, 91.3 22.04, 110.89 2.32 M66.27 53.64 C82.9 34.66, 100.11 13.42, 110.89 2.32 M71.26 54 C83.63 32.61, 101.86 19.61, 115.87 2.68 M71.26 54 C87.78 33.3, 107.39 13.5, 115.87 2.68 M76.91 53.6 C91.31 33.45, 108.04 17.91, 121.52 2.28 M76.91 53.6 C87.62 43.53, 97.18 30.96, 121.52 2.28 M81.89 53.96 C98.56 37.3, 113.64 18.35, 126.5 2.64 M81.89 53.96 C90.35 42.46, 100.27 31.78, 126.5 2.64 M87.54 53.57 C99.67 39.64, 110.3 25.69, 131.49 3 M87.54 53.57 C100.88 36.82, 114.21 22.81, 131.49 3 M92.52 53.93 C101.88 36.01, 120.17 28.46, 137.13 2.61 M92.52 53.93 C104.96 42.79, 112.28 32.65, 137.13 2.61 M97.51 54.29 C112.23 33.19, 122.86 19.36, 142.12 2.97 M97.51 54.29 C112.89 36.57, 127.85 15.93, 142.12 2.97 M103.15 53.89 C120.61 33.85, 131.37 20, 147.76 2.57 M103.15 53.89 C115.74 40.35, 128.39 23.58, 147.76 2.57 M108.14 54.25 C122.56 35.87, 135.85 23.03, 154.06 1.42 M108.14 54.25 C125.45 33.57, 145.43 12.97, 154.06 1.42 M113.78 53.86 C126.4 45.53, 133.05 32.5, 157.08 4.05 M113.78 53.86 C130.47 36.45, 143.21 21.29, 157.08 4.05 M118.77 54.22 C133.82 40.3, 146.56 23.48, 160.1 6.67 M118.77 54.22 C134.17 38.25, 147.75 25.52, 160.1 6.67 M124.41 53.82 C137.33 36.29, 152.71 24.08, 161.15 11.56 M124.41 53.82 C134.24 45.01, 142.94 32.82, 161.15 11.56 M129.4 54.18 C134.69 47.9, 145.92 41.93, 161.55 17.2 M129.4 54.18 C133.66 45.7, 142.12 40.92, 161.55 17.2 M134.39 54.54 C141.44 45.24, 156.44 31.39, 161.28 23.6 M134.39 54.54 C144.59 44.46, 153.47 31.86, 161.28 23.6 M140.03 54.15 C145.65 44.66, 150.89 38.61, 161.02 30 M140.03 54.15 C147.31 43.58, 153.38 37.24, 161.02 30 M145.02 54.51 C146.62 47.77, 154.62 47.84, 160.76 36.4 M145.02 54.51 C150.46 46.41, 155.97 40.73, 160.76 36.4 M149.35 55.63 C152.37 51.93, 151.59 46.49, 160.5 42.79 M149.35 55.63 C153.99 51.89, 155.57 47.37, 160.5 42.79" stroke="#a5d8ff" stroke-width="0.5" fill="none"></path><path d="M13.45 0 M13.45 0 C58.56 -5.25, 97.97 0.97, 146.89 0 M13.45 0 C40.24 -0.93, 67.74 -0.98, 146.89 0 M146.89 0 C153.33 -3.3, 160.74 7.63, 160.34 13.45 M146.89 0 C157.19 -1.52, 164.4 3.87, 160.34 13.45 M160.34 13.45 C156.4 27.47, 160.91 34.54, 160.34 40.36 M160.34 13.45 C160.14 24.81, 161.5 31.68, 160.34 40.36 M160.34 40.36 C161.37 51.51, 152.1 55.02, 146.89 53.81 M160.34 40.36 C162.27 49.79, 153.81 53.47, 146.89 53.81 M146.89 53.81 C95.34 57.09, 43.76 54.04, 13.45 53.81 M146.89 53.81 C96.6 53.58, 45.29 54.19, 13.45 53.81 M13.45 53.81 C8.35 51.11, 2.32 49.6, 0 40.36 M13.45 53.81 C1.52 51.62, 2.21 53.58, 0 40.36 M0 40.36 C2.09 34.49, 2.57 29.91, 0 13.45 M0 40.36 C-1.41 30.56, -0.91 24.24, 0 13.45 M0 13.45 C-3.65 3.11, 3.15 -2.88, 13.45 0 M0 13.45 C0.41 7.33, 0.78 -2.45, 13.45 0" stroke="#1e1e1e" stroke-width="1" fill="none"></path></g><g transform="translate(286.7891669565707 150.79227444031437) rotate(0.3481145243140338 46.77461242675781 13.81799351206135)"><text x="46.77461242675781" y="0" font-family="HanziPen SC, HanziPen Remote, Virgil, KaiTi, Segoe UI Emoji" font-size="22.10878961929815px" fill="#1e1e1e" text-anchor="middle" style="white-space: pre;" direction="ltr" dominant-baseline="text-before-edge">scratch.md</text></g><g stroke-linecap="round" transform="translate(711.1525065316353 490.87481054589153) rotate(0 69 25)"><path d="M3.33 2.89 C3.33 2.89, 3.33 2.89, 3.33 2.89 M3.33 2.89 C3.33 2.89, 3.33 2.89, 3.33 2.89 M1.75 10.8 C3.29 7.91, 9.55 1.62, 10.28 0.99 M1.75 10.8 C3.07 8.27, 6.4 4.79, 10.28 0.99 M1.49 17.2 C7.13 16.26, 11.61 5.62, 14.61 2.1 M1.49 17.2 C7.5 12.95, 11.64 6.89, 14.61 2.1 M1.89 22.84 C4.74 19.3, 15.16 8.65, 20.26 1.71 M1.89 22.84 C9.63 14.53, 14.92 6.12, 20.26 1.71 M1.63 29.24 C7.12 19.35, 15.12 15.66, 25.24 2.07 M1.63 29.24 C8.23 18.89, 20.58 8.82, 25.24 2.07 M1.36 35.64 C5.67 27.93, 17.67 20.29, 30.23 2.43 M1.36 35.64 C8.66 26.73, 13.34 21.49, 30.23 2.43 M1.76 41.28 C11 25.47, 27.82 10.05, 35.87 2.03 M1.76 41.28 C10.54 31.08, 19.94 22.53, 35.87 2.03 M3.47 45.41 C14.38 32.35, 28.77 12.3, 40.86 2.39 M3.47 45.41 C11.37 32.41, 21.39 22.14, 40.86 2.39 M5.83 48.79 C17.84 36.22, 28.39 17.56, 46.5 2 M5.83 48.79 C21.63 29.93, 39.1 9.88, 46.5 2 M8.85 51.42 C20.3 35.38, 40.96 22.35, 51.49 2.36 M8.85 51.42 C20.13 36.31, 31.12 25.75, 51.49 2.36 M14.49 51.02 C26.88 41.03, 32.81 23.05, 57.13 1.97 M14.49 51.02 C21.47 38.85, 31.85 29.28, 57.13 1.97 M19.48 51.38 C34.02 35.01, 46.48 23.75, 62.12 2.33 M19.48 51.38 C28.17 39.51, 38.96 27.62, 62.12 2.33 M25.12 50.99 C40.07 29.53, 57.66 13.42, 67.76 1.93 M25.12 50.99 C40.34 32.5, 56.52 16.92, 67.76 1.93 M30.11 51.35 C40.48 35.14, 60.95 17.88, 72.75 2.29 M30.11 51.35 C43.32 34.33, 61.3 15.85, 72.75 2.29 M35.75 50.95 C46.95 37.23, 58.6 25.06, 77.74 2.65 M35.75 50.95 C45.04 39.2, 52 30.06, 77.74 2.65 M40.74 51.31 C49.67 33.08, 64.5 21.42, 83.38 2.26 M40.74 51.31 C50.82 39.37, 59.65 28.45, 83.38 2.26 M45.72 51.67 C54.75 41.42, 68.09 29.53, 88.37 2.62 M45.72 51.67 C55.67 39.8, 67.36 27.23, 88.37 2.62 M51.37 51.28 C63.45 35.45, 74.83 22.35, 94.01 2.22 M51.37 51.28 C64.51 37.68, 76.4 23.1, 94.01 2.22 M56.35 51.64 C63.98 39.75, 71.79 28.66, 99 2.58 M56.35 51.64 C69.78 35.14, 81.05 22.92, 99 2.58 M62 51.24 C80.37 36.34, 96.63 12.31, 104.64 2.19 M62 51.24 C79.81 32.21, 92.54 11.43, 104.64 2.19 M66.98 51.6 C79.01 36, 93.88 18.72, 109.63 2.55 M66.98 51.6 C75.31 41.41, 84.9 27.82, 109.63 2.55 M72.63 51.21 C85.12 36.8, 100.65 21.59, 114.62 2.91 M72.63 51.21 C84.36 37.78, 95.29 23.6, 114.62 2.91 M77.61 51.57 C90.97 32.51, 106.08 19.48, 120.26 2.51 M77.61 51.57 C91.53 38.48, 105.35 22.4, 120.26 2.51 M83.26 51.17 C94.6 40.4, 105.74 22.86, 125.25 2.87 M83.26 51.17 C94.59 37.21, 108.88 22.17, 125.25 2.87 M88.24 51.53 C98.44 38.93, 113.79 22.88, 131.54 1.72 M88.24 51.53 C102.81 32.33, 119.59 14.13, 131.54 1.72 M93.23 51.89 C105.35 37.77, 122.52 22.21, 135.22 3.59 M93.23 51.89 C103.16 39.59, 114.4 30.57, 135.22 3.59 M98.87 51.5 C111.23 30.81, 125.57 18.16, 138.24 6.22 M98.87 51.5 C113.07 32.66, 128.49 18.25, 138.24 6.22 M103.86 51.86 C116.18 40.61, 127.65 26.99, 139.29 11.11 M103.86 51.86 C109.3 42.49, 117.36 33.05, 139.29 11.11 M109.5 51.47 C119.65 39.68, 125.17 25.29, 139.03 17.5 M109.5 51.47 C121.83 38.72, 129.27 29.24, 139.03 17.5 M114.49 51.83 C122.63 42.36, 127.15 32.98, 139.42 23.15 M114.49 51.83 C119.44 45.02, 126.13 36.15, 139.42 23.15 M120.13 51.43 C123.67 50.22, 127.99 41.94, 139.16 29.54 M120.13 51.43 C126.19 48.09, 127.23 41.94, 139.16 29.54 M126.43 50.28 C131.63 43.95, 134.71 39.22, 138.9 35.94 M126.43 50.28 C129.98 48.32, 133.53 42.54, 138.9 35.94" stroke="#b2f2bb" stroke-width="0.5" fill="none"></path><path d="M12.5 0 M12.5 0 C56.31 0.54, 96.3 1.49, 125.5 0 M12.5 0 C46.69 -2.74, 83.7 0.54, 125.5 0 M125.5 0 C136.86 -1.82, 139.03 6.34, 138 12.5 M125.5 0 C129.51 1.38, 139.93 4.63, 138 12.5 M138 12.5 C139 22.75, 137.59 25.98, 138 37.5 M138 12.5 C136.75 18.77, 138.58 27.3, 138 37.5 M138 37.5 C139.44 48.59, 137.7 47.29, 125.5 50 M138 37.5 C140.66 46.15, 130.87 47.81, 125.5 50 M125.5 50 C85.95 51.61, 48.9 48.99, 12.5 50 M125.5 50 C84.83 51.92, 42.04 49.2, 12.5 50 M12.5 50 C2.56 52.07, -3.65 44.46, 0 37.5 M12.5 50 C2.64 46.69, 0.41 48.68, 0 37.5 M0 37.5 C0.28 33.49, 2.66 23.51, 0 12.5 M0 37.5 C-0.21 29.74, -1.49 22.86, 0 12.5 M0 12.5 C-1.67 1.55, 7.24 -2.86, 12.5 0 M0 12.5 C0.38 2.06, 6.7 -3.28, 12.5 0" stroke="#1e1e1e" stroke-width="1" fill="none"></path></g><g transform="translate(764.592516602436 503.37481054589153) rotate(0 15.559989929199219 12.5)"><text x="15.559989929199219" y="0" font-family="HanziPen SC, HanziPen Remote, Virgil, KaiTi, Segoe UI Emoji" font-size="20px" fill="#1e1e1e" text-anchor="middle" style="white-space: pre;" direction="ltr" dominant-baseline="text-before-edge">blog</text></g><g transform="translate(475.3262450060343 94.70888647362591) rotate(0 54.07891845703125 10.602711841331683)"><text x="0" y="0" font-family="HanziPen SC, HanziPen Remote, Virgil, KaiTi, Segoe UI Emoji" font-size="16.964338946130685px" fill="#1e1e1e" text-anchor="start" style="white-space: pre;" direction="ltr" dominant-baseline="text-before-edge">weekly schedule</text></g><g stroke-linecap="round"><g transform="translate(154.53690594569775 10.910470335930583) rotate(0 65.05309386357203 54.12415480092169)"><path d="M1.01 -0.91 C22.85 17.17, 108.47 90.92, 130.02 109.16 M0.08 1.23 C21.81 18.9, 107.24 89.29, 128.81 107.41" stroke="#1e1e1e" stroke-width="1" fill="none"></path></g><g transform="translate(154.53690594569775 10.910470335930583) rotate(0 65.05309386357203 54.12415480092169)"><path d="M99.05 96.43 C107.86 98.9, 112.91 101.87, 128.32 108.65 M100.9 98.27 C109.56 101.19, 118.25 104.37, 129.4 108.2" stroke="#1e1e1e" stroke-width="1" fill="none"></path></g><g transform="translate(154.53690594569775 10.910470335930583) rotate(0 65.05309386357203 54.12415480092169)"><path d="M112.16 80.65 C118.25 86.62, 120.48 92.98, 128.32 108.65 M114.01 82.49 C118.57 90.16, 123.25 98.16, 129.4 108.2" stroke="#1e1e1e" stroke-width="1" fill="none"></path></g></g><mask></mask><g stroke-linecap="round"><g transform="translate(148.152201355854 317.8857663564384) rotate(0 51.879812461128466 -62.037347951303246)"><path d="M0.2 0.8 C17.39 -19.75, 85.21 -102.37, 102.57 -123.16 M-1.15 0.17 C16.48 -20.73, 87.35 -104.4, 104.91 -124.87" stroke="#1e1e1e" stroke-width="1" fill="none"></path></g><g transform="translate(148.152201355854 317.8857663564384) rotate(0 51.879812461128466 -62.037347951303246)"><path d="M95.77 -97.94 C98.37 -102.02, 99.67 -109.39, 104.51 -123.58 M94.62 -96.23 C97.42 -105.81, 100.8 -114.81, 104.28 -124.7" stroke="#1e1e1e" stroke-width="1" fill="none"></path></g><g transform="translate(148.152201355854 317.8857663564384) rotate(0 51.879812461128466 -62.037347951303246)"><path d="M80.15 -111.24 C86.7 -112, 91.92 -116.02, 104.51 -123.58 M78.99 -109.54 C87.09 -114.81, 95.65 -119.41, 104.28 -124.7" stroke="#1e1e1e" stroke-width="1" fill="none"></path></g></g><mask></mask><g stroke-linecap="round"><g transform="translate(816.2825974313162 489.87481054589153) rotate(0 135.83552937482773 -157.17900204136967)"><path d="M0.89 -0.37 C46.12 -34.91, 265.27 -155.41, 270.68 -207.68 C276.09 -259.95, 72.86 -295.93, 33.36 -313.98" stroke="#1e1e1e" stroke-width="1.5" fill="none" stroke-dasharray="1.5 7"></path></g><g transform="translate(816.2825974313162 489.87481054589153) rotate(0 135.83552937482773 -157.17900204136967)"><path d="M62.69 -316.58 C55.85 -314.27, 50.46 -313.38, 31.42 -313.6" stroke="#1e1e1e" stroke-width="1.5" fill="none" stroke-dasharray="1.5 5"></path></g><g transform="translate(816.2825974313162 489.87481054589153) rotate(0 135.83552937482773 -157.17900204136967)"><path d="M56.76 -296.93 C51.41 -299.35, 47.43 -303.14, 31.42 -313.6" stroke="#1e1e1e" stroke-width="1.5" fill="none" stroke-dasharray="1.5 5"></path></g></g><mask></mask><g transform="translate(188.41398114101025 34.946252196282146) rotate(0 21.54998779296875 12.5)"><text x="0" y="0" font-family="HanziPen SC, HanziPen Remote, Virgil, KaiTi, Segoe UI Emoji" font-size="20px" fill="#1e1e1e" text-anchor="start" style="white-space: pre;" direction="ltr" dominant-baseline="text-before-edge">feeds</text></g><g transform="translate(68.295756043354 241.50579199120403) rotate(0 60.859947204589844 12.5)"><text x="0" y="0" font-family="HanziPen SC, HanziPen Remote, Virgil, KaiTi, Segoe UI Emoji" font-size="20px" fill="#1e1e1e" text-anchor="start" style="white-space: pre;" direction="ltr" dominant-baseline="text-before-edge">all websites/...</text></g><g stroke-linecap="round"><g transform="translate(11.26182049647906 103.44829687401653) rotate(0 117.93952834203373 29.243354496816167)"><path d="M0.13 0.94 C39.56 10.38, 197.72 47.59, 237.14 56.77 M-1.26 0.38 C37.98 9.98, 196.83 48.72, 236.35 58.1" stroke="#1e1e1e" stroke-width="1" fill="none"></path></g><g transform="translate(11.26182049647906 103.44829687401653) rotate(0 117.93952834203373 29.243354496816167)"><path d="M208.1 61.95 C216.25 59.97, 225.3 57.19, 235.48 58.67 M206.08 60.8 C217.38 59.72, 225.67 58.71, 236.76 57.61" stroke="#1e1e1e" stroke-width="1" fill="none"></path></g><g transform="translate(11.26182049647906 103.44829687401653) rotate(0 117.93952834203373 29.243354496816167)"><path d="M212.91 42.01 C219.41 46.95, 226.79 51.11, 235.48 58.67 M210.89 40.85 C220.49 46.48, 227.17 52.15, 236.76 57.61" stroke="#1e1e1e" stroke-width="1" fill="none"></path></g></g><mask></mask><g transform="translate(68.19144696132281 127.53298315331341) rotate(0 56.69994354248047 12.5)"><text x="0" y="0" font-family="HanziPen SC, HanziPen Remote, Virgil, KaiTi, Segoe UI Emoji" font-size="20px" fill="#1e1e1e" text-anchor="start" style="white-space: pre;" direction="ltr" dominant-baseline="text-before-edge">works/life/...</text></g><g transform="translate(1037.1342570199165 283.4150327138603) rotate(0 11.239990234375 12.5)"><text x="0" y="0" font-family="HanziPen SC, HanziPen Remote, Virgil, KaiTi, Segoe UI Emoji" font-size="20px" fill="#1e1e1e" text-anchor="start" style="white-space: pre;" direction="ltr" dominant-baseline="text-before-edge">url</text></g><g stroke-linecap="round" transform="translate(606.2648112191353 33.53575262352825) rotate(0 194.1956787109375 158.33429718017578)"><path d="M7.86 8.16 C7.86 8.16, 7.86 8.16, 7.86 8.16 M7.86 8.16 C7.86 8.16, 7.86 8.16, 7.86 8.16 M3.66 19.09 C9.45 13.01, 12.77 6.9, 18.1 2.48 M3.66 19.09 C6.56 15.31, 10.79 12.37, 18.1 2.48 M2.75 26.24 C9.26 18.34, 13.22 15.67, 24.4 1.33 M2.75 26.24 C8.97 18.92, 14.59 12.36, 24.4 1.33 M2.48 32.64 C12.08 23.71, 19.86 11.77, 30.7 0.18 M2.48 32.64 C12.82 20.62, 22.31 9.97, 30.7 0.18 M2.88 38.28 C15.93 23.77, 27.24 8.1, 34.37 2.05 M2.88 38.28 C15.24 23.11, 28.43 10.65, 34.37 2.05 M2.62 44.68 C16.82 29.55, 26.39 17.39, 39.36 2.41 M2.62 44.68 C14.09 32.81, 24.14 19.96, 39.36 2.41 M2.36 51.07 C14.65 36.06, 26.44 22.99, 45 2.02 M2.36 51.07 C18.24 31.82, 36 12.22, 45 2.02 M2.75 56.72 C12.83 42.38, 27.34 32.04, 49.99 2.38 M2.75 56.72 C17.36 40.39, 32.75 23.17, 49.99 2.38 M2.49 63.11 C21.31 41.84, 39.36 22.17, 55.63 1.98 M2.49 63.11 C19.59 45.43, 34.81 25.21, 55.63 1.98 M2.88 68.76 C19.01 49.27, 38.75 29.3, 60.62 2.34 M2.88 68.76 C15.67 52.81, 30.38 36.27, 60.62 2.34 M2.62 75.16 C18.43 56.78, 33.88 39.06, 66.26 1.95 M2.62 75.16 C17.37 59.86, 31.15 42.14, 66.26 1.95 M2.36 81.55 C26.62 53.33, 50.68 28.17, 71.25 2.31 M2.36 81.55 C19.49 61.13, 38.92 40.69, 71.25 2.31 M2.76 87.2 C20.09 67.13, 39.97 47.95, 76.89 1.91 M2.76 87.2 C21.47 65.26, 42.28 41.65, 76.89 1.91 M2.49 93.59 C24 69.12, 39.87 45.63, 81.88 2.27 M2.49 93.59 C25.37 67.08, 49.88 39.03, 81.88 2.27 M2.23 99.99 C27.5 72.41, 52.45 40.04, 87.52 1.88 M2.23 99.99 C33.95 59.97, 68.55 22.93, 87.52 1.88 M2.63 105.64 C26.77 80.75, 49.04 49.69, 92.51 2.24 M2.63 105.64 C20.81 83.85, 38.35 63.99, 92.51 2.24 M2.37 112.03 C22.81 86.11, 45.91 64.48, 98.15 1.85 M2.37 112.03 C21.29 89.83, 41.08 65.8, 98.15 1.85 M2.76 117.68 C35.96 81.34, 64.23 46.58, 103.14 2.21 M2.76 117.68 C41.05 75.89, 78.27 33.15, 103.14 2.21 M2.5 124.07 C22.73 96.71, 47.11 74.46, 108.78 1.81 M2.5 124.07 C39.41 79.78, 75.91 37.44, 108.78 1.81 M2.24 130.47 C29.06 102.78, 53.11 73.96, 113.77 2.17 M2.24 130.47 C41.53 85.89, 80.49 41.44, 113.77 2.17 M2.63 136.11 C37.67 94.67, 72.92 54.79, 119.41 1.78 M2.63 136.11 C37.51 93.5, 74.87 51.69, 119.41 1.78 M2.37 142.51 C48.73 92.74, 89.28 44.4, 124.4 2.14 M2.37 142.51 C26.88 112.54, 53.58 82.4, 124.4 2.14 M2.11 148.91 C42.03 103.12, 82.93 59.71, 130.04 1.74 M2.11 148.91 C31.89 114.71, 59.88 82.3, 130.04 1.74 M2.5 154.55 C50.05 99.73, 100.36 41.18, 135.03 2.1 M2.5 154.55 C53.02 95.66, 103.71 37, 135.03 2.1 M2.24 160.95 C40.53 113.04, 78.3 68.96, 140.67 1.71 M2.24 160.95 C33.48 123.39, 66.87 86.26, 140.67 1.71 M2.64 166.59 C35.23 130.41, 69.17 92.63, 145.66 2.07 M2.64 166.59 C33.94 130.86, 65.95 93.29, 145.66 2.07 M2.38 172.99 C42.87 128.31, 81.81 82.03, 150.65 2.43 M2.38 172.99 C55.97 111.75, 111.26 48.97, 150.65 2.43 M2.11 179.39 C36.54 141.31, 68.8 106.63, 156.29 2.03 M2.11 179.39 C39.36 137.09, 74.82 96.38, 156.29 2.03 M2.51 185.03 C53.26 127.25, 101.77 72.41, 161.28 2.39 M2.51 185.03 C44.53 139.12, 84.83 93.89, 161.28 2.39 M2.25 191.43 C52.76 134.51, 100.3 77.55, 166.92 2 M2.25 191.43 C44.7 141.65, 88.98 91.08, 166.92 2 M1.99 197.83 C53.02 141.92, 98.94 87.09, 171.91 2.36 M1.99 197.83 C67.69 120.22, 134.1 44.12, 171.91 2.36 M2.38 203.47 C73.41 123.16, 143.94 44.29, 177.55 1.96 M2.38 203.47 C52.53 147.47, 101.85 90.93, 177.55 1.96 M2.12 209.87 C48.61 155.84, 98.57 100.06, 182.54 2.32 M2.12 209.87 C57.03 146.1, 113.34 82.33, 182.54 2.32 M2.51 215.51 C59.28 153.69, 115.56 88.75, 188.18 1.93 M2.51 215.51 C44.45 168.46, 84.75 121.67, 188.18 1.93 M2.25 221.91 C64.6 146.57, 132.13 71.08, 193.17 2.29 M2.25 221.91 C74.44 140.76, 145.92 59.27, 193.17 2.29 M1.99 228.31 C67.33 150.29, 133.51 75.9, 198.81 1.9 M1.99 228.31 C70.13 149.43, 138.21 70.78, 198.81 1.9 M2.39 233.95 C42.9 188.06, 84.54 141.26, 203.8 2.26 M2.39 233.95 C81.14 141.71, 159.7 51.89, 203.8 2.26 M2.12 240.35 C68.37 165.16, 133.32 93.09, 209.44 1.86 M2.12 240.35 C55.06 178.41, 108.92 115.98, 209.44 1.86 M2.52 245.99 C76.25 161.32, 151.37 74.91, 214.43 2.22 M2.52 245.99 C50.8 192.84, 97.61 139.23, 214.43 2.22 M2.26 252.39 C82.18 158.12, 164.44 64.71, 220.07 1.83 M2.26 252.39 C67.86 175.03, 135.61 98.71, 220.07 1.83 M2 258.79 C68.94 181.52, 136.39 103.64, 225.06 2.19 M2 258.79 C79.04 169.96, 155.93 81.78, 225.06 2.19 M2.39 264.43 C84.63 168.72, 167.25 72.07, 230.7 1.79 M2.39 264.43 C88.97 165.33, 174.78 66.22, 230.7 1.79 M2.13 270.83 C90.34 167.39, 180.02 65.7, 235.69 2.15 M2.13 270.83 C70.73 189.31, 140.28 109.61, 235.69 2.15 M1.87 277.23 C55.61 216.29, 109.91 151.92, 241.33 1.76 M1.87 277.23 C70.68 197.02, 139.57 116.48, 241.33 1.76 M0.29 285.13 C76.38 195.21, 153.49 106.99, 246.32 2.12 M0.29 285.13 C62.79 214.2, 125.02 142.5, 246.32 2.12 M1.34 290.02 C58.47 224.86, 117.34 158.09, 251.96 1.72 M1.34 290.02 C56.72 225.01, 113.27 161.14, 251.96 1.72 M1.74 295.66 C63.02 223.53, 125 152.85, 256.95 2.08 M1.74 295.66 C59.05 231.34, 115.5 167.31, 256.95 2.08 M3.45 299.8 C91.7 198.64, 181.05 96, 262.59 1.69 M3.45 299.8 C74.73 217.41, 145.41 135.66, 262.59 1.69 M5.81 303.18 C91.7 207.1, 174.85 109.36, 267.58 2.05 M5.81 303.18 C73.18 226.73, 140.39 148.85, 267.58 2.05 M7.52 307.31 C69.76 232.34, 135.55 158.41, 272.56 2.41 M7.52 307.31 C88.34 215.6, 167.5 123.58, 272.56 2.41 M9.88 310.69 C93.14 215.9, 175.27 121.79, 278.21 2.01 M9.88 310.69 C76.13 231.32, 143.81 154.19, 278.21 2.01 M13.55 312.56 C101.61 210.58, 188.91 109.58, 283.19 2.37 M13.55 312.56 C92.04 223.55, 169.51 134.47, 283.19 2.37 M17.23 314.43 C117.75 195.65, 218.89 78.91, 288.84 1.98 M17.23 314.43 C110.18 208.18, 204.43 99.8, 288.84 1.98 M20.25 317.05 C96.96 228.2, 175.89 138.77, 293.82 2.34 M20.25 317.05 C121.27 201.55, 220.37 87.18, 293.82 2.34 M25.23 317.41 C106.47 222.78, 187.34 130.59, 299.47 1.94 M25.23 317.41 C109.94 220.5, 194.12 122.52, 299.47 1.94 M29.56 318.53 C120.99 215.58, 210.21 109.42, 304.45 2.3 M29.56 318.53 C85.95 255.89, 141.38 192.06, 304.45 2.3 M34.55 318.89 C106.92 235.23, 180.04 151.85, 310.1 1.91 M34.55 318.89 C132.59 205.29, 230.84 91.49, 310.1 1.91 M39.54 319.25 C143.81 199.39, 247.1 80.04, 315.08 2.27 M39.54 319.25 C97.58 253.08, 156.68 184.48, 315.08 2.27 M45.18 318.85 C120.97 232.81, 194.09 148.14, 320.73 1.88 M45.18 318.85 C141.69 205.38, 239.46 93.76, 320.73 1.88 M50.17 319.21 C122.53 235.45, 195.3 152.09, 325.71 2.24 M50.17 319.21 C147.16 207.51, 243.11 96.66, 325.71 2.24 M55.81 318.82 C145.62 215.24, 236.13 112.11, 331.36 1.84 M55.81 318.82 C163.1 197.09, 269.96 73.84, 331.36 1.84 M60.8 319.18 C146.17 219.83, 232.95 121.48, 336.34 2.2 M60.8 319.18 C146.04 223.86, 228.95 127.62, 336.34 2.2 M66.44 318.78 C134.09 242.21, 202.28 164.75, 341.99 1.81 M66.44 318.78 C120.53 254.15, 175.58 189.6, 341.99 1.81 M71.43 319.14 C175.33 200.89, 277.56 80.46, 346.97 2.17 M71.43 319.14 C156.66 222.96, 239.68 127.23, 346.97 2.17 M77.07 318.75 C146.23 237.08, 217.6 155.61, 352.62 1.77 M77.07 318.75 C178.83 202.54, 280.7 85.26, 352.62 1.77 M82.06 319.11 C138.06 252.32, 194.58 186.91, 358.26 1.38 M82.06 319.11 C171.78 212.87, 263.6 107.58, 358.26 1.38 M87.7 318.72 C193.89 194.15, 301.12 71.24, 362.59 2.49 M87.7 318.72 C173.46 219.45, 260.14 119.15, 362.59 2.49 M92.69 319.08 C165.6 234.15, 239.93 147.13, 367.58 2.85 M92.69 319.08 C173.83 226.33, 254.35 133.51, 367.58 2.85 M98.33 318.68 C179.8 225.82, 260.86 134.25, 371.91 3.97 M98.33 318.68 C180.19 224.13, 261.4 130.85, 371.91 3.97 M103.32 319.04 C195.84 212.32, 291.65 103.55, 375.58 5.84 M103.32 319.04 C173.52 241.74, 241.78 162.56, 375.58 5.84 M108.96 318.65 C170.15 251.05, 230.47 179.99, 379.26 7.71 M108.96 318.65 C165.86 251.99, 223.48 186.22, 379.26 7.71 M113.95 319.01 C197.32 222.32, 279.71 127.13, 382.93 9.58 M113.95 319.01 C221.54 195.05, 328.43 72.69, 382.93 9.58 M119.59 318.61 C181.86 245.83, 244.78 173.49, 384.64 13.71 M119.59 318.61 C175.22 256.68, 229.8 194.11, 384.64 13.71 M124.58 318.97 C220.25 212.23, 312.53 105.17, 387 17.09 M124.58 318.97 C192.55 238.29, 262.51 157.53, 387 17.09 M130.22 318.58 C183.6 256.48, 238.35 194.65, 389.37 20.47 M130.22 318.58 C197.97 242.51, 264.06 166.29, 389.37 20.47 M135.21 318.94 C235.78 205.46, 334.69 90.17, 389.76 26.11 M135.21 318.94 C222.13 220.51, 308.46 122.2, 389.76 26.11 M140.85 318.54 C195.65 256.9, 250.77 193.44, 389.5 32.51 M140.85 318.54 C236.22 207.3, 332.66 97.8, 389.5 32.51 M145.84 318.9 C200.24 257.29, 254.26 195.96, 389.24 38.91 M145.84 318.9 C201 254.45, 255.73 191.71, 389.24 38.91 M150.83 319.26 C236.41 219.11, 324.25 117.96, 388.98 45.3 M150.83 319.26 C213.86 247.37, 276.06 175.48, 388.98 45.3 M156.47 318.87 C244.34 218.47, 330.37 119.14, 389.37 50.95 M156.47 318.87 C224.62 239.81, 293.62 161.45, 389.37 50.95 M161.46 319.23 C240.2 228.68, 316.94 139.33, 389.11 57.34 M161.46 319.23 C248.35 218.78, 334.53 119.71, 389.11 57.34 M167.1 318.83 C225.1 251.15, 286.14 184.91, 389.5 62.99 M167.1 318.83 C221.57 260, 273.4 198.78, 389.5 62.99 M172.09 319.19 C226.36 254.26, 285.11 188.59, 389.24 69.39 M172.09 319.19 C233.68 246.92, 296.12 174.93, 389.24 69.39 M177.73 318.8 C229.42 257.08, 282.12 197.21, 388.98 75.78 M177.73 318.8 C238.72 246.74, 300.13 175.09, 388.98 75.78 M182.72 319.16 C233.77 260.17, 281.87 204.77, 389.38 81.43 M182.72 319.16 C258.25 231.89, 335.63 142.73, 389.38 81.43 M188.36 318.77 C261.75 232.12, 335.98 146.43, 389.11 87.82 M188.36 318.77 C237.48 262.5, 285.57 205.13, 389.11 87.82 M193.35 319.13 C233.79 272.44, 276.45 224.96, 389.51 93.47 M193.35 319.13 C244.72 260.33, 294.82 202, 389.51 93.47 M198.99 318.73 C273.1 234.16, 347.66 147.49, 389.25 99.87 M198.99 318.73 C239.32 272.35, 280.09 224.92, 389.25 99.87 M203.98 319.09 C258.53 256.21, 316.66 190.04, 388.99 106.26 M203.98 319.09 C241.51 274.16, 279.24 230.06, 388.99 106.26 M209.62 318.7 C275.39 243.56, 342.24 166.5, 389.38 111.91 M209.62 318.7 C256.3 265.48, 302.46 213.46, 389.38 111.91 M214.61 319.06 C262.68 262.65, 312.04 207.69, 389.12 118.3 M214.61 319.06 C270.47 252.06, 328.63 186.22, 389.12 118.3 M220.25 318.66 C270.81 263.19, 318.16 208.6, 389.51 123.95 M220.25 318.66 C285.17 246.21, 348.61 172.43, 389.51 123.95 M225.24 319.02 C273.2 263.85, 317.19 212.79, 389.25 130.34 M225.24 319.02 C285.09 249.18, 346.55 178.94, 389.25 130.34 M230.88 318.63 C268.32 276.69, 303.66 233.72, 388.99 136.74 M230.88 318.63 C280.86 258.36, 332.19 200.78, 388.99 136.74 M235.87 318.99 C279.82 269.49, 322.05 220.1, 389.39 142.39 M235.87 318.99 C287.42 260.78, 336.7 204.24, 389.39 142.39 M241.51 318.59 C271.21 284.5, 300.1 252.29, 389.12 148.78 M241.51 318.59 C294.67 254.82, 349.13 192.46, 389.12 148.78 M246.5 318.95 C285.98 274.3, 321.65 231.23, 389.52 154.43 M246.5 318.95 C275.62 285.89, 306.2 252.26, 389.52 154.43 M252.14 318.56 C292.87 273.46, 335.24 225.99, 389.26 160.82 M252.14 318.56 C298.83 264.8, 344.54 210.53, 389.26 160.82 M257.13 318.92 C309.6 260.77, 362.33 201.36, 389 167.22 M257.13 318.92 C295.23 275.9, 334.04 231.2, 389 167.22 M262.77 318.52 C304.41 270.87, 348.29 223.02, 389.39 172.87 M262.77 318.52 C289.32 287.46, 315.53 256.14, 389.39 172.87 M267.76 318.88 C300.3 280.26, 334.33 239.92, 389.13 179.26 M267.76 318.88 C302.73 277.07, 338.98 233.91, 389.13 179.26 M272.74 319.24 C298.31 286.74, 328.94 254.57, 389.52 184.91 M272.74 319.24 C303.9 283.3, 336.24 247.46, 389.52 184.91 M278.39 318.85 C313.13 275.58, 352.38 235, 389.26 191.3 M278.39 318.85 C320.85 271.25, 360.52 224.03, 389.26 191.3 M283.37 319.21 C309.01 289.61, 335.1 259.03, 389 197.7 M283.37 319.21 C324.78 273.4, 363.47 227.48, 389 197.7 M289.02 318.82 C322.08 279.37, 356.74 242.17, 389.39 203.34 M289.02 318.82 C318.58 285.09, 346.94 251.64, 389.39 203.34 M294 319.18 C319.75 287.66, 350.71 258.59, 389.13 209.74 M294 319.18 C325.58 285.44, 354.54 250.6, 389.13 209.74 M299.65 318.78 C329.69 281.03, 360.76 245.07, 389.53 215.39 M299.65 318.78 C325.71 288.62, 352.72 257.54, 389.53 215.39 M304.64 319.14 C323.23 297.54, 341.33 276.66, 389.27 221.78 M304.64 319.14 C322.56 299.64, 339.48 280.14, 389.27 221.78 M310.28 318.75 C339.34 283.4, 368.19 251.3, 389.01 228.18 M310.28 318.75 C331.88 293.52, 352.77 269.33, 389.01 228.18 M315.27 319.11 C330.1 300.67, 349.77 281.71, 389.4 233.82 M315.27 319.11 C338.54 293.5, 361.17 265.57, 389.4 233.82 M320.91 318.71 C340.16 297.9, 356.88 274.74, 389.14 240.22 M320.91 318.71 C342.42 294.49, 363.14 268.85, 389.14 240.22 M325.9 319.07 C348.72 293.95, 369.96 270.14, 389.53 245.86 M325.9 319.07 C341.85 300.84, 357.83 282.92, 389.53 245.86 M331.54 318.68 C348.08 301.54, 363.07 282.76, 389.27 252.26 M331.54 318.68 C353.12 293.73, 374.78 269.13, 389.27 252.26 M336.53 319.04 C354.02 298.54, 373.78 274.06, 389.01 258.66 M336.53 319.04 C355.37 297, 374.76 272.77, 389.01 258.66 M342.17 318.64 C355.63 305.56, 368.9 288.09, 389.4 264.3 M342.17 318.64 C354.87 304.07, 367.4 291.03, 389.4 264.3 M347.16 319 C363.66 299.61, 380.96 280.98, 389.14 270.7 M347.16 319 C362.52 300.95, 378.82 282.68, 389.14 270.7 M352.8 318.61 C365.25 307.03, 373.96 295.61, 389.54 276.34 M352.8 318.61 C361.08 310.45, 367.06 301.94, 389.54 276.34 M358.44 318.21 C366.56 308.76, 370.67 302.73, 389.28 282.74 M358.44 318.21 C367.15 309.16, 373.42 300.1, 389.28 282.74 M364.08 317.82 C370.63 308.99, 379.37 303.14, 390.98 286.88 M364.08 317.82 C372.12 309.04, 377.92 301.43, 390.98 286.88 M371.7 315.16 C378.16 307.99, 385.85 300.84, 390.07 294.03 M371.7 315.16 C376.07 309.94, 379.92 307.04, 390.07 294.03" stroke="#ffec99" stroke-width="0.5" fill="none"></path><path d="M32 0 M32 0 C102.14 0.14, 170.75 -0.59, 356.39 0 M32 0 C154.94 2.4, 278.62 1.19, 356.39 0 M356.39 0 C379.5 0.29, 386.88 10.98, 388.39 32 M356.39 0 C379.66 2.06, 386.13 11.96, 388.39 32 M388.39 32 C385.21 114.21, 386.37 195.5, 388.39 284.67 M388.39 32 C388.32 92.64, 389.13 152.14, 388.39 284.67 M388.39 284.67 C388.66 304.3, 378.42 318.01, 356.39 316.67 M388.39 284.67 C387.85 304.32, 377.34 315.05, 356.39 316.67 M356.39 316.67 C288.56 318.18, 220.74 318.03, 32 316.67 M356.39 316.67 C229.28 317.4, 104.07 316.53, 32 316.67 M32 316.67 C9.87 316.92, -0.33 307.62, 0 284.67 M32 316.67 C8.77 314.5, 1.21 303.85, 0 284.67 M0 284.67 C-2.56 213.39, -1.3 142.27, 0 32 M0 284.67 C-1.51 212.32, -1.87 139.63, 0 32 M0 32 C-1.41 8.93, 9.53 1.87, 32 0 M0 32 C2.27 9.48, 9.78 1.15, 32 0" stroke="#1e1e1e" stroke-width="1" fill="none"></path></g><g stroke-linecap="round" transform="translate(716.844584168354 67.41893896386028) rotate(0 60 20.5)"><path d="M2.73 2.37 C2.73 2.37, 2.73 2.37, 2.73 2.37 M2.73 2.37 C2.73 2.37, 2.73 2.37, 2.73 2.37 M0.5 11.03 C2.63 7.03, 5.12 5.48, 10.34 -0.29 M0.5 11.03 C2.25 8.88, 4.37 5.98, 10.34 -0.29 M0.89 16.68 C3.72 11.07, 9.24 10.52, 13.36 2.34 M0.89 16.68 C3.91 13.11, 5.19 10.57, 13.36 2.34 M1.29 22.32 C6.67 18.6, 10.93 10.91, 18.35 2.7 M1.29 22.32 C6.04 16.37, 10.98 11.14, 18.35 2.7 M1.03 28.72 C10.16 19.06, 13.96 10.35, 23.99 2.3 M1.03 28.72 C7.82 21.65, 12.72 13.59, 23.99 2.3 M0.77 35.12 C10.31 24.62, 14.63 16.11, 28.98 2.66 M0.77 35.12 C9.18 26.66, 16.13 17.14, 28.98 2.66 M3.78 37.74 C15.16 25.47, 26.84 11.74, 33.96 3.02 M3.78 37.74 C9.48 30.44, 16.54 21.78, 33.96 3.02 M6.15 41.12 C14.17 30.89, 20.79 21.41, 39.61 2.63 M6.15 41.12 C14.61 30.84, 21.87 21.69, 39.61 2.63 M11.79 40.72 C23.17 24.73, 38.03 13.42, 44.59 2.99 M11.79 40.72 C21 28.82, 31.35 18.05, 44.59 2.99 M16.78 41.08 C29.53 25.2, 40.36 11.6, 50.24 2.59 M16.78 41.08 C29.06 26.83, 42.8 10.94, 50.24 2.59 M22.42 40.69 C33.45 30.02, 40.88 16.39, 55.22 2.95 M22.42 40.69 C33.94 26.95, 44.83 14.43, 55.22 2.95 M27.41 41.05 C40.22 26.35, 55.25 9.74, 60.87 2.56 M27.41 41.05 C40.1 28.19, 50.28 13.35, 60.87 2.56 M32.39 41.41 C45.26 27.47, 53.7 15.99, 65.85 2.92 M32.39 41.41 C42.48 30.03, 52.55 17.99, 65.85 2.92 M38.04 41.02 C47.97 28.76, 60.62 14.39, 70.84 3.28 M38.04 41.02 C47.73 30.68, 56.11 19.6, 70.84 3.28 M43.02 41.38 C54.24 26.13, 66.09 13.25, 76.48 2.88 M43.02 41.38 C54.76 29.29, 64.55 16.89, 76.48 2.88 M48.67 40.98 C55.86 34.75, 60.05 24.77, 81.47 3.25 M48.67 40.98 C58.61 29.14, 69.66 16.27, 81.47 3.25 M53.65 41.34 C62.81 30.39, 73.92 21.39, 87.11 2.85 M53.65 41.34 C65.84 25.64, 79.45 11.47, 87.11 2.85 M59.3 40.95 C66.08 34.18, 72.29 26.67, 92.1 3.21 M59.3 40.95 C66.75 32.04, 74.18 22.9, 92.1 3.21 M64.28 41.31 C77.69 25.3, 88.26 12.94, 97.74 2.82 M64.28 41.31 C75.26 28.1, 88.48 13.38, 97.74 2.82 M69.93 40.91 C82.33 28.96, 93.64 14.79, 102.73 3.18 M69.93 40.91 C79.41 30.23, 89.85 19.55, 102.73 3.18 M74.91 41.27 C88.25 26.65, 97.66 15.73, 108.37 2.78 M74.91 41.27 C84.58 31.16, 95.24 19.67, 108.37 2.78 M79.9 41.63 C89.98 28.92, 99.82 15.84, 114.67 1.63 M79.9 41.63 C92.12 28.73, 102.98 16.22, 114.67 1.63 M85.54 41.24 C97.56 27.29, 106.99 17.56, 117.69 4.26 M85.54 41.24 C94.48 29.33, 105.13 19.11, 117.69 4.26 M90.53 41.6 C97.65 33.38, 104.73 24.54, 120.71 6.88 M90.53 41.6 C98.4 31.17, 106.87 22.85, 120.71 6.88 M96.17 41.2 C102.18 34.92, 106.7 30.5, 120.45 13.28 M96.17 41.2 C105.27 31.41, 114.32 20.19, 120.45 13.28 M101.16 41.56 C107.46 35.71, 113.77 28.26, 120.84 18.92 M101.16 41.56 C106.23 34.26, 113.12 28.99, 120.84 18.92 M106.8 41.17 C112.64 33.61, 118.37 31.51, 120.58 25.32 M106.8 41.17 C110.91 36.71, 115.09 33.8, 120.58 25.32 M111.14 42.28 C113.14 39.11, 118.05 34.38, 120.98 30.96 M111.14 42.28 C115.43 38.65, 119.07 33.37, 120.98 30.96" stroke="#ffec99" stroke-width="0.5" fill="none"></path><path d="M10.25 0 M10.25 0 C37.18 0.54, 61.25 0.09, 109.75 0 M109.75 0 C115.72 -0.34, 121.6 1.43, 120 10.25 M120 10.25 C119.63 15.73, 121.2 18.82, 120 30.75 M120 30.75 C121.29 36.95, 117.56 41.61, 109.75 41 M109.75 41 C75.43 40.87, 39.76 42.04, 10.25 41 M10.25 41 C4.93 40, 1.91 36.32, 0 30.75 M0 30.75 C-0.99 23.13, -0.27 17.85, 0 10.25 M0 10.25 C1.24 3.8, 4.67 0.56, 10.25 0" stroke="#1e1e1e" stroke-width="1.5" fill="none" stroke-dasharray="8 9"></path></g><g transform="translate(741.1046168221626 75.41893896386028) rotate(0 35.739967346191406 12.5)"><text x="35.739967346191406" y="0" font-family="HanziPen SC, HanziPen Remote, Virgil, KaiTi, Segoe UI Emoji" font-size="20px" fill="#1e1e1e" text-anchor="middle" style="white-space: pre;" direction="ltr" dominant-baseline="text-before-edge">Diary.md</text></g><g stroke-linecap="round" transform="translate(715.187601746479 150.15056738182903) rotate(0 61.5 19)"><path d="M2.53 2.2 C2.53 2.2, 2.53 2.2, 2.53 2.2 M2.53 2.2 C2.53 2.2, 2.53 2.2, 2.53 2.2 M0.96 10.11 C1.54 8.3, 5.44 5.13, 9.48 0.29 M0.96 10.11 C2.94 7.86, 4.8 6.55, 9.48 0.29 M0.69 16.5 C5.37 11.7, 7.34 9.6, 15.13 -0.1 M0.69 16.5 C6.57 10.81, 10.62 4.82, 15.13 -0.1 M1.09 22.15 C8.89 16.37, 12.66 8.71, 20.11 0.26 M1.09 22.15 C6.37 16.57, 10.09 11.58, 20.11 0.26 M1.48 27.79 C7.1 20.88, 11.78 12.9, 25.76 -0.13 M1.48 27.79 C9.68 18.93, 17.22 8.38, 25.76 -0.13 M1.88 33.43 C11.44 22.67, 22.81 8.16, 30.74 0.23 M1.88 33.43 C9.7 24.69, 17.16 15.85, 30.74 0.23 M4.24 36.81 C16.21 23.9, 26.27 13.82, 35.73 0.59 M4.24 36.81 C11.72 28.16, 20.71 17.5, 35.73 0.59 M7.26 39.44 C18.48 27.63, 28.79 14.94, 41.37 0.19 M7.26 39.44 C21.07 23.45, 34.51 9.84, 41.37 0.19 M12.9 39.04 C17.91 31.62, 28.3 21.91, 46.36 0.55 M12.9 39.04 C22.31 28.61, 31.95 17.58, 46.36 0.55 M17.89 39.4 C27.49 30.99, 34.01 20.24, 52 0.16 M17.89 39.4 C28.83 27.12, 40.47 14.46, 52 0.16 M23.53 39.01 C31.42 32.42, 36.61 21.74, 56.99 0.52 M23.53 39.01 C31.09 30.34, 41.23 19.98, 56.99 0.52 M28.52 39.37 C41.67 25.67, 52.16 14.82, 62.63 0.12 M28.52 39.37 C35.25 31.73, 42.24 23.26, 62.63 0.12 M33.51 39.73 C42.54 28.15, 54.02 15.77, 67.62 0.48 M33.51 39.73 C47.41 24.46, 59.46 8.11, 67.62 0.48 M39.15 39.33 C46.95 29.58, 54.96 21.97, 72.61 0.84 M39.15 39.33 C48.64 28.27, 57.25 18.11, 72.61 0.84 M44.14 39.69 C52.08 31.4, 60.72 19.99, 78.25 0.45 M44.14 39.69 C50.78 31.68, 57.92 22.8, 78.25 0.45 M49.78 39.3 C63.67 27.22, 75.1 13.29, 83.24 0.81 M49.78 39.3 C59.37 27.09, 70.87 14.66, 83.24 0.81 M54.77 39.66 C66.67 23.14, 81.93 8.37, 88.88 0.41 M54.77 39.66 C63.8 28.85, 71.93 20.65, 88.88 0.41 M60.41 39.26 C75.11 25.93, 86.44 8.62, 93.87 0.77 M60.41 39.26 C69.86 28.1, 79.84 18.11, 93.87 0.77 M65.4 39.62 C74.76 25.26, 87.56 13, 99.51 0.38 M65.4 39.62 C74.67 28.64, 83.36 17.09, 99.51 0.38 M71.04 39.23 C82.42 25.08, 93.24 13.64, 104.5 0.74 M71.04 39.23 C77.51 30.95, 83.76 22.8, 104.5 0.74 M76.03 39.59 C82.63 28.89, 92.15 21.27, 110.14 0.34 M76.03 39.59 C86.89 26.92, 96.57 16.27, 110.14 0.34 M81.01 39.95 C93.55 27.11, 104.45 14.7, 115.13 0.7 M81.01 39.95 C91.48 26.94, 101.9 14.09, 115.13 0.7 M86.66 39.55 C96.74 27.72, 108.31 13.29, 119.46 1.82 M86.66 39.55 C97.89 25.8, 111.75 10.59, 119.46 1.82 M91.64 39.91 C104.65 25.07, 114.02 12.68, 121.82 5.2 M91.64 39.91 C103.57 27.19, 115.71 14.23, 121.82 5.2 M97.29 39.52 C107.05 27.03, 119.92 15.08, 124.84 7.82 M97.29 39.52 C103.21 33.42, 108.48 24.95, 124.84 7.82 M102.27 39.88 C108.84 34.49, 112.97 27.77, 125.24 13.46 M102.27 39.88 C108.81 33.6, 114.98 25.91, 125.24 13.46 M107.92 39.49 C114.02 33.19, 118.99 27.66, 124.97 19.86 M107.92 39.49 C113.43 32.2, 119.84 26.24, 124.97 19.86 M114.22 38.34 C118.45 34.71, 122.83 29.96, 124.71 26.26 M114.22 38.34 C116.38 35.71, 119.67 33.66, 124.71 26.26" stroke="#ffec99" stroke-width="0.5" fill="none"></path><path d="M9.5 0 M9.5 0 C46.77 1, 86.81 -0.18, 113.5 0 M113.5 0 C121.03 1.17, 121.57 2.32, 123 9.5 M123 9.5 C122.64 15.66, 121.51 21.68, 123 28.5 M123 28.5 C124.42 34.32, 117.84 36.37, 113.5 38 M113.5 38 C89.25 38.64, 68.38 39.31, 9.5 38 M9.5 38 C4.27 37.35, -0.29 34.37, 0 28.5 M0 28.5 C-1.36 23.85, 0.88 18, 0 9.5 M0 9.5 C-1.09 1.25, 2.21 -0.69, 9.5 0" stroke="#1e1e1e" stroke-width="1.5" fill="none" stroke-dasharray="8 9"></path></g><g transform="translate(750.7776133431587 156.65056738182903) rotate(0 25.909988403320312 12.5)"><text x="25.909988403320312" y="0" font-family="HanziPen SC, HanziPen Remote, Virgil, KaiTi, Segoe UI Emoji" font-size="20px" fill="#1e1e1e" text-anchor="middle" style="white-space: pre;" direction="ltr" dominant-baseline="text-before-edge">gh.yml</text></g><g stroke-linecap="round" transform="translate(717.997172058979 249.32409033104778) rotate(0 62 17.5)"><path d="M2.33 2.02 C2.33 2.02, 2.33 2.02, 2.33 2.02 M2.33 2.02 C2.33 2.02, 2.33 2.02, 2.33 2.02 M0.76 9.93 C3.7 7.31, 4.88 4.42, 9.28 0.12 M0.76 9.93 C3.26 7.14, 4.5 4.77, 9.28 0.12 M1.15 15.57 C6.59 11.96, 11.66 4.13, 14.27 0.48 M1.15 15.57 C4.99 10.62, 10.25 5.7, 14.27 0.48 M1.54 21.22 C8.03 14.5, 12.26 7.13, 19.91 0.09 M1.54 21.22 C6.42 17.23, 9.52 12.32, 19.91 0.09 M1.28 27.62 C11.42 17.3, 15.83 9.83, 24.9 0.45 M1.28 27.62 C10.26 18.22, 17.93 8.57, 24.9 0.45 M2.99 31.75 C8.03 25.13, 16.89 17.25, 30.54 0.05 M2.99 31.75 C12.89 18.66, 23.75 6.5, 30.54 0.05 M5.35 35.13 C15.35 22.97, 24.98 13.89, 35.53 0.41 M5.35 35.13 C11.48 28.16, 18.04 21.97, 35.53 0.41 M11 34.73 C19.09 27, 26.46 19.71, 40.52 0.77 M11 34.73 C21.15 23.15, 32.42 10.44, 40.52 0.77 M15.98 35.09 C28.95 22.99, 39.16 7.12, 46.16 0.38 M15.98 35.09 C24.67 25.44, 33.54 15.22, 46.16 0.38 M21.63 34.7 C30.71 21.74, 42.36 10.25, 51.15 0.74 M21.63 34.7 C32.1 21.07, 43.57 8.8, 51.15 0.74 M26.61 35.06 C39.04 20.63, 48.16 8.73, 56.79 0.34 M26.61 35.06 C38.81 21.13, 50.66 9.57, 56.79 0.34 M31.6 35.42 C38.58 25.56, 50.2 14.98, 61.78 0.7 M31.6 35.42 C40.82 25.03, 48.82 15.12, 61.78 0.7 M37.24 35.02 C42.83 26.88, 52.13 17.33, 67.42 0.31 M37.24 35.02 C44.64 27, 52.49 18.19, 67.42 0.31 M42.23 35.38 C49.66 25.18, 58.77 15.92, 72.41 0.67 M42.23 35.38 C54.7 21.87, 64.85 8.37, 72.41 0.67 M47.87 34.99 C54.72 23.17, 64.52 16.43, 77.4 1.03 M47.87 34.99 C57.12 24.82, 65.52 16.31, 77.4 1.03 M52.86 35.35 C58.48 26.31, 66.34 22.58, 83.04 0.63 M52.86 35.35 C61.01 26.61, 69.16 15.77, 83.04 0.63 M58.5 34.96 C63.03 25.64, 71.42 20.36, 88.03 0.99 M58.5 34.96 C67.22 24.6, 75.99 16.29, 88.03 0.99 M63.49 35.32 C74.71 23.11, 87.39 8.96, 93.67 0.6 M63.49 35.32 C72.8 23.85, 83.21 12.78, 93.67 0.6 M69.13 34.92 C75.5 29.36, 79.95 18.47, 98.66 0.96 M69.13 34.92 C76.27 24.88, 85.28 15.33, 98.66 0.96 M74.12 35.28 C81.2 24.03, 90.67 14.67, 104.3 0.56 M74.12 35.28 C83.58 24.1, 95.07 12.81, 104.3 0.56 M79.11 35.64 C83.64 27.11, 91.61 20.28, 109.29 0.92 M79.11 35.64 C87.49 25.19, 94.29 15.93, 109.29 0.92 M84.75 35.25 C90.43 26.56, 97.89 21.14, 114.93 0.53 M84.75 35.25 C92.05 25.73, 100.32 16.33, 114.93 0.53 M89.74 35.61 C96.54 27.74, 107.28 17.04, 119.92 0.89 M89.74 35.61 C97.81 25.45, 108.37 16.27, 119.92 0.89 M95.38 35.21 C101.9 25.94, 110.04 16.2, 122.28 4.27 M95.38 35.21 C106.96 23.1, 115.67 11.52, 122.28 4.27 M100.37 35.57 C106.43 29.3, 112.27 21.22, 125.3 6.89 M100.37 35.57 C110.23 23.74, 118.81 14.97, 125.3 6.89 M106.01 35.18 C111.47 29.73, 116.8 25.13, 125.69 12.54 M106.01 35.18 C111.75 29.66, 116.98 23.97, 125.69 12.54 M111 35.54 C115.18 30.07, 118.4 26.97, 125.43 18.93 M111 35.54 C116.54 29.86, 122.72 23.97, 125.43 18.93 M115.98 35.9 C119.75 31.68, 122.2 28.3, 125.17 25.33 M115.98 35.9 C118.82 31.29, 122.93 27.84, 125.17 25.33" stroke="#ffec99" stroke-width="0.5" fill="none"></path><path d="M8.75 0 M8.75 0 C38.15 1.74, 69.01 -0.84, 115.25 0 M115.25 0 C121.97 0.65, 125.5 3.68, 124 8.75 M124 8.75 C124.69 12.25, 122.25 18.24, 124 26.25 M124 26.25 C124.05 30.15, 122.95 34.77, 115.25 35 M115.25 35 C87.63 36.45, 61.15 35.56, 8.75 35 M8.75 35 C1.13 34.59, -0.73 33.29, 0 26.25 M0 26.25 C-1.46 20.62, -0.76 15.32, 0 8.75 M0 8.75 C1.02 2.08, 1.12 -0.58, 8.75 0" stroke="#1e1e1e" stroke-width="1.5" fill="none" stroke-dasharray="8 9"></path></g><g transform="translate(742.4171931161079 254.32409033104778) rotate(0 37.579978942871094 12.5)"><text x="37.579978942871094" y="0" font-family="HanziPen SC, HanziPen Remote, Virgil, KaiTi, Segoe UI Emoji" font-size="20px" fill="#1e1e1e" text-anchor="middle" style="white-space: pre;" direction="ltr" dominant-baseline="text-before-edge">TASK.md</text></g><g transform="translate(939.6755167855415 50.45278295800091) rotate(0 16.949981689453125 12.5)"><text x="0" y="0" font-family="HanziPen SC, HanziPen Remote, Virgil, KaiTi, Segoe UI Emoji" font-size="20px" fill="#1e1e1e" text-anchor="start" style="white-space: pre;" direction="ltr" dominant-baseline="text-before-edge">Docs</text></g><g stroke-linecap="round"><g transform="translate(421.3122774941531 158.30991299900785) rotate(0 144.38967487487662 -34.50341268958869)"><path d="M-0.48 -0.64 C47.39 -11.96, 238.86 -57.56, 286.95 -68.99 M1.46 1.63 C49.75 -9.92, 241.59 -58.5, 289.26 -70.64" stroke="#1e1e1e" stroke-width="1" fill="none"></path></g><g transform="translate(421.3122774941531 158.30991299900785) rotate(0 144.38967487487662 -34.50341268958869)"><path d="M263.39 -55.04 C272.97 -57.71, 279.47 -62.96, 290.98 -71.46 M263.98 -53.11 C271.35 -58.12, 278.16 -63.05, 289.86 -71.33" stroke="#1e1e1e" stroke-width="1" fill="none"></path></g><g transform="translate(421.3122774941531 158.30991299900785) rotate(0 144.38967487487662 -34.50341268958869)"><path d="M258.34 -74.93 C269.14 -72.08, 277.03 -71.84, 290.98 -71.46 M258.93 -73 C267.82 -72.64, 275.98 -72.25, 289.86 -71.33" stroke="#1e1e1e" stroke-width="1" fill="none"></path></g></g><mask></mask><g stroke-linecap="round"><g transform="translate(416.15721538273016 161.50310884826533) rotate(0 146.88559412995193 3.919643469264159)"><path d="M0.65 -0.61 C49.66 0.68, 244.28 6.92, 293.13 8.45" stroke="#1e1e1e" stroke-width="1.5" fill="none" stroke-dasharray="1.5 7"></path></g><g transform="translate(416.15721538273016 161.50310884826533) rotate(0 146.88559412995193 3.919643469264159)"><path d="M263.61 16.68 C272.02 15.42, 278.44 11.66, 291.73 10.15" stroke="#1e1e1e" stroke-width="1.5" fill="none" stroke-dasharray="1.5 5"></path></g><g transform="translate(416.15721538273016 161.50310884826533) rotate(0 146.88559412995193 3.919643469264159)"><path d="M264.26 -3.83 C272.64 -0.59, 278.92 0.16, 291.73 10.15" stroke="#1e1e1e" stroke-width="1.5" fill="none" stroke-dasharray="1.5 5"></path></g></g><mask></mask><g stroke-linecap="round"><g transform="translate(779.1036858716805 285.3240903310478) rotate(0 -0.7917344053407191 100.59385034367443)"><path d="M-0.9 0.03 C-1.16 33.37, -0.62 167.95, -0.61 201.16" stroke="#1e1e1e" stroke-width="1.5" fill="none" stroke-dasharray="8 9"></path></g><g transform="translate(779.1036858716805 285.3240903310478) rotate(0 -0.7917344053407191 100.59385034367443)"><path d="M-10.89 171.71 C-5.22 182, -4.41 194.66, -0.9 199.56" stroke="#1e1e1e" stroke-width="1.5" fill="none"></path></g><g transform="translate(779.1036858716805 285.3240903310478) rotate(0 -0.7917344053407191 100.59385034367443)"><path d="M9.63 171.66 C7.57 181.82, 0.65 194.5, -0.9 199.56" stroke="#1e1e1e" stroke-width="1.5" fill="none"></path></g></g><mask></mask><g transform="translate(569.8371378792915 398.99602636620403) rotate(0 97.07991790771484 12.5)"><text x="0" y="0" font-family="HanziPen SC, HanziPen Remote, Virgil, KaiTi, Segoe UI Emoji" font-size="20px" fill="#1e1e1e" text-anchor="start" style="white-space: pre;" direction="ltr" dominant-baseline="text-before-edge">so... write code and blog</text></g></svg>