<?xml version="1.0" encoding="iso-8859-1"?>
<!-- Uploaded to: SVG Repo, www.svgrepo.com, Generator: SVG Repo Mixer Tools -->
<!DOCTYPE svg PUBLIC "-//W3C//DTD SVG 1.1//EN" "http://www.w3.org/Graphics/SVG/1.1/DTD/svg11.dtd">
<svg fill="#000000" version="1.1" id="Capa_1" xmlns="http://www.w3.org/2000/svg" xmlns:xlink="http://www.w3.org/1999/xlink"
	 width="800px" height="800px" viewBox="0 0 190.408 190.407"
	 xml:space="preserve">
<g>
	<path d="M98.069,3.567C5.46-26.087-29.4,137.675,46.545,179.472c52.597,28.947,111.642-3.116,132.632-54.666
		C200.722,71.894,164.031-13.013,98.069,3.567z M161.591,42.214c-3.967-3.02-8.014-5.806-11.332-8.391
		c-7.941-6.187-16.005-12.354-24.243-18.218C141.375,20.209,153.354,29.763,161.591,42.214z M115.303,13.258
		c10.333,8.188,20.959,15.974,31.097,24.424c7.915,6.597,15.195,15.814,23.648,21.821c1.244,3.588,2.283,7.278,3.052,11.069
		c-23.456-20.225-49.009-37.958-72.715-57.903C105.62,12.399,110.586,12.622,115.303,13.258z M40.331,163.69
		c-13-10.231-20.536-24.626-24.059-40.328c6.923,8.747,14.194,17.215,21.562,25.593c7.937,9.026,16.21,18.99,25.504,27.161
		C55.279,173.417,47.504,169.336,40.331,163.69z M72.798,178.633c-8.611-10.354-19.515-19.269-28.876-28.932
		c-10.121-10.447-19.496-21.515-28.851-32.631c-1.071-6.915-1.404-14.003-1.149-21.039c28.021,27.594,53.474,59.775,85.003,83.329
		C90.264,180.519,81.438,180.338,72.798,178.633z M105.705,178.176c-29.979-28.74-60.329-57.841-91.609-85.21
		c0.266-4.357,0.789-8.668,1.476-12.904c35.773,29.263,67.896,61.728,99.427,95.528
		C111.946,176.622,108.844,177.492,105.705,178.176z M120.729,173.399c-0.105-0.187-0.167-0.377-0.324-0.556
		c-31.128-35.203-66.709-67.771-104.238-96.181c0.699-3.685,1.552-7.281,2.535-10.771c36.152,35.017,73.577,68.716,109.643,103.838
		C125.855,171.065,123.326,172.312,120.729,173.399z M132.975,167.063c-0.112-0.349-0.295-0.693-0.569-1.022
		c-32.123-38.68-74.338-70.367-113.032-102.464c1.428-4.646,3.179-9.042,5.186-13.201c13.153,21.709,36.624,39.021,55.464,55.098
		c20.847,17.79,41.538,37.476,63.608,53.806C140.259,162.137,136.708,164.758,132.975,167.063z M147.791,155.52
		c-15.854-19.474-40.057-34.427-59.463-49.803C65.788,87.857,45.75,68.654,25.566,48.418c1.828-3.552,3.885-6.88,6.117-10.009
		c19.169,16.599,39.098,32.292,58.7,48.375c23.146,18.992,42.916,40.489,64.581,60.803
		C152.711,150.376,150.344,153.054,147.791,155.52z M164.232,133.485c-1.715,3.344-3.695,6.481-5.808,9.502
		c-14.605-21.992-38.959-39.271-59.25-55.373c-21.82-17.314-44.458-33.547-66.1-51.08c3.109-4.086,6.583-7.736,10.353-10.948
		C79.883,61.98,120.45,95.092,159.494,128.563c2.947,2.527,7.057-1.443,4.302-4.303c-35.786-37.146-79.91-65.757-118.04-100.569
		c2.91-2.257,6.009-4.216,9.248-5.922c20.675,15.953,41.714,31.41,62.055,47.802c19.695,15.871,35.688,34.224,53.81,51.34
		C169.18,122.554,166.987,128.113,164.232,133.485z M172.924,108.711c-10.546-17.354-32.468-31.62-47.254-43.333
		c-21.754-17.233-44.577-33.145-67.166-49.274c3.777-1.693,7.744-3.017,11.885-3.938c-0.008,0.369,0.147,0.742,0.584,0.994
		c39.575,22.878,67.944,57.878,103.467,85.637C174.103,102.104,173.607,105.414,172.924,108.711z M73.293,11.617
		c5.974-1.035,12.28-1.266,18.895-0.523c0.652,1.231,1.858,2.1,3.645,1.919c0.459-0.047,0.901-0.063,1.357-0.102
		c24.702,23.525,51.958,44.16,77.302,66.991c0.363,3.774,0.511,7.599,0.414,11.452C143.021,63.272,111.516,30.345,73.293,11.617z"/>
</g>
</svg>